<mxfile host="app.diagrams.net" modified="2023-04-11T08:18:14.615Z" agent="Mozilla/5.0 (Windows NT 10.0; Win64; x64) AppleWebKit/537.36 (KHTML, like Gecko) Chrome/111.0.0.0 Safari/537.36" etag="NM3xadYVBOSc6ZV2A41y" version="21.1.5" type="github">
  <diagram name="第 1 页" id="wF8RmPH4EmUKHOYBFlst">
    <mxGraphModel dx="1434" dy="1877" grid="1" gridSize="10" guides="1" tooltips="1" connect="1" arrows="1" fold="1" page="1" pageScale="1" pageWidth="827" pageHeight="1169" math="0" shadow="0">
      <root>
        <mxCell id="0" />
        <mxCell id="1" parent="0" />
        <mxCell id="6mpwaXIzWs3BblDAKZ4c-46" value="" style="rounded=0;whiteSpace=wrap;html=1;" vertex="1" parent="1">
          <mxGeometry x="40" y="-10" width="690" height="650" as="geometry" />
        </mxCell>
        <mxCell id="6mpwaXIzWs3BblDAKZ4c-14" value="&lt;pre style=&quot;background-color:#ffffff;color:#080808;font-family:&#39;JetBrains Mono&#39;,monospace;font-size:12.0pt;&quot;&gt;&lt;span style=&quot;color:#000000;&quot;&gt;xxxAware是什么时候赋值的？&lt;/span&gt;&lt;/pre&gt;&lt;pre style=&quot;background-color:#ffffff;color:#080808;font-family:&#39;JetBrains Mono&#39;,monospace;font-size:12.0pt;&quot;&gt;&lt;span style=&quot;color:#000000;&quot;&gt; &lt;/span&gt;&lt;/pre&gt;" style="text;whiteSpace=wrap;html=1;" vertex="1" parent="1">
          <mxGeometry x="310" y="-10" width="90" height="70" as="geometry" />
        </mxCell>
        <mxCell id="6mpwaXIzWs3BblDAKZ4c-17" value="" style="edgeStyle=orthogonalEdgeStyle;rounded=0;orthogonalLoop=1;jettySize=auto;html=1;" edge="1" parent="1" source="6mpwaXIzWs3BblDAKZ4c-15" target="6mpwaXIzWs3BblDAKZ4c-16">
          <mxGeometry relative="1" as="geometry" />
        </mxCell>
        <mxCell id="6mpwaXIzWs3BblDAKZ4c-15" value="创建BeanFactory" style="rounded=0;whiteSpace=wrap;html=1;" vertex="1" parent="1">
          <mxGeometry x="60" y="70" width="120" height="60" as="geometry" />
        </mxCell>
        <mxCell id="6mpwaXIzWs3BblDAKZ4c-19" value="" style="edgeStyle=orthogonalEdgeStyle;rounded=0;orthogonalLoop=1;jettySize=auto;html=1;" edge="1" parent="1" source="6mpwaXIzWs3BblDAKZ4c-16" target="6mpwaXIzWs3BblDAKZ4c-18">
          <mxGeometry relative="1" as="geometry" />
        </mxCell>
        <mxCell id="6mpwaXIzWs3BblDAKZ4c-16" value="完成BeanFactory 的初始化" style="whiteSpace=wrap;html=1;rounded=0;" vertex="1" parent="1">
          <mxGeometry x="60" y="170" width="120" height="60" as="geometry" />
        </mxCell>
        <mxCell id="6mpwaXIzWs3BblDAKZ4c-25" value="" style="edgeStyle=orthogonalEdgeStyle;rounded=0;orthogonalLoop=1;jettySize=auto;html=1;" edge="1" parent="1" source="6mpwaXIzWs3BblDAKZ4c-18" target="6mpwaXIzWs3BblDAKZ4c-24">
          <mxGeometry relative="1" as="geometry" />
        </mxCell>
        <mxCell id="6mpwaXIzWs3BblDAKZ4c-18" value="初始化单实例 bean" style="whiteSpace=wrap;html=1;rounded=0;" vertex="1" parent="1">
          <mxGeometry x="260" y="170" width="120" height="60" as="geometry" />
        </mxCell>
        <mxCell id="6mpwaXIzWs3BblDAKZ4c-23" value="" style="edgeStyle=orthogonalEdgeStyle;rounded=0;orthogonalLoop=1;jettySize=auto;html=1;" edge="1" parent="1" source="6mpwaXIzWs3BblDAKZ4c-20" target="6mpwaXIzWs3BblDAKZ4c-22">
          <mxGeometry relative="1" as="geometry" />
        </mxCell>
        <mxCell id="6mpwaXIzWs3BblDAKZ4c-20" value="getBean(beanName&lt;span style=&quot;background-color: initial;&quot;&gt;)&lt;/span&gt;" style="whiteSpace=wrap;html=1;rounded=0;fillColor=#60a917;fontColor=#ffffff;strokeColor=#2D7600;" vertex="1" parent="1">
          <mxGeometry x="260" y="360" width="120" height="60" as="geometry" />
        </mxCell>
        <mxCell id="6mpwaXIzWs3BblDAKZ4c-28" value="" style="edgeStyle=orthogonalEdgeStyle;rounded=0;orthogonalLoop=1;jettySize=auto;html=1;" edge="1" parent="1" source="6mpwaXIzWs3BblDAKZ4c-22" target="6mpwaXIzWs3BblDAKZ4c-27">
          <mxGeometry relative="1" as="geometry" />
        </mxCell>
        <mxCell id="6mpwaXIzWs3BblDAKZ4c-22" value="&lt;pre style=&quot;background-color: rgb(255, 255, 255); color: rgb(8, 8, 8); font-family: &amp;quot;JetBrains Mono&amp;quot;, monospace;&quot;&gt;&lt;font style=&quot;font-size: 13px;&quot;&gt;doGetBean()&lt;/font&gt;&lt;/pre&gt;" style="whiteSpace=wrap;html=1;rounded=0;" vertex="1" parent="1">
          <mxGeometry x="260" y="470" width="120" height="40" as="geometry" />
        </mxCell>
        <mxCell id="6mpwaXIzWs3BblDAKZ4c-26" value="" style="edgeStyle=orthogonalEdgeStyle;rounded=0;orthogonalLoop=1;jettySize=auto;html=1;" edge="1" parent="1" source="6mpwaXIzWs3BblDAKZ4c-24" target="6mpwaXIzWs3BblDAKZ4c-20">
          <mxGeometry relative="1" as="geometry" />
        </mxCell>
        <mxCell id="6mpwaXIzWs3BblDAKZ4c-24" value="从档案馆里拿到所有bean的名字，循环遍历获取" style="whiteSpace=wrap;html=1;rounded=0;" vertex="1" parent="1">
          <mxGeometry x="260" y="260" width="120" height="60" as="geometry" />
        </mxCell>
        <mxCell id="6mpwaXIzWs3BblDAKZ4c-30" value="" style="edgeStyle=orthogonalEdgeStyle;rounded=0;orthogonalLoop=1;jettySize=auto;html=1;" edge="1" parent="1" source="6mpwaXIzWs3BblDAKZ4c-27" target="6mpwaXIzWs3BblDAKZ4c-29">
          <mxGeometry relative="1" as="geometry" />
        </mxCell>
        <mxCell id="6mpwaXIzWs3BblDAKZ4c-27" value="&lt;font style=&quot;font-size: 12px;&quot;&gt;createBean(&lt;span style=&quot;font-family: &amp;quot;JetBrains Mono&amp;quot;, monospace; color: rgb(133, 22, 145);&quot;&gt;beanName&lt;/span&gt;&lt;span style=&quot;background-color: rgb(255, 255, 255); color: rgb(8, 8, 8); font-family: &amp;quot;JetBrains Mono&amp;quot;, monospace;&quot;&gt;, &lt;/span&gt;&lt;span style=&quot;font-family: &amp;quot;JetBrains Mono&amp;quot;, monospace; color: rgb(133, 22, 145);&quot;&gt;mbd&lt;/span&gt;&lt;span style=&quot;background-color: rgb(255, 255, 255); color: rgb(8, 8, 8); font-family: &amp;quot;JetBrains Mono&amp;quot;, monospace;&quot;&gt;, &lt;/span&gt;&lt;span style=&quot;font-family: &amp;quot;JetBrains Mono&amp;quot;, monospace; color: rgb(133, 22, 145);&quot;&gt;args&lt;/span&gt;&lt;span style=&quot;background-color: rgb(255, 255, 255); color: rgb(8, 8, 8); font-family: &amp;quot;JetBrains Mono&amp;quot;, monospace;&quot;&gt;)&lt;/span&gt;创建bean实例&lt;/font&gt;" style="whiteSpace=wrap;html=1;rounded=0;" vertex="1" parent="1">
          <mxGeometry x="235" y="555" width="170" height="60" as="geometry" />
        </mxCell>
        <mxCell id="6mpwaXIzWs3BblDAKZ4c-32" value="" style="edgeStyle=orthogonalEdgeStyle;rounded=0;orthogonalLoop=1;jettySize=auto;html=1;" edge="1" parent="1" source="6mpwaXIzWs3BblDAKZ4c-29" target="6mpwaXIzWs3BblDAKZ4c-31">
          <mxGeometry relative="1" as="geometry" />
        </mxCell>
        <mxCell id="6mpwaXIzWs3BblDAKZ4c-29" value="&lt;pre style=&quot;background-color: rgb(255, 255, 255); color: rgb(8, 8, 8); font-family: &amp;quot;JetBrains Mono&amp;quot;, monospace;&quot;&gt;&lt;font style=&quot;font-size: 12px;&quot;&gt;ObjectFactory提供了bean实例&lt;/font&gt;&lt;/pre&gt;" style="whiteSpace=wrap;html=1;rounded=0;fillColor=#a20025;fontColor=#ffffff;strokeColor=#6F0000;" vertex="1" parent="1">
          <mxGeometry x="460" y="562.5" width="260" height="45" as="geometry" />
        </mxCell>
        <mxCell id="6mpwaXIzWs3BblDAKZ4c-49" value="" style="edgeStyle=orthogonalEdgeStyle;rounded=0;orthogonalLoop=1;jettySize=auto;html=1;" edge="1" parent="1" source="6mpwaXIzWs3BblDAKZ4c-31" target="6mpwaXIzWs3BblDAKZ4c-48">
          <mxGeometry relative="1" as="geometry" />
        </mxCell>
        <mxCell id="6mpwaXIzWs3BblDAKZ4c-31" value="创建bean实例" style="whiteSpace=wrap;html=1;rounded=0;fillColor=#e3c800;fontColor=#000000;strokeColor=#B09500;" vertex="1" parent="1">
          <mxGeometry x="530" y="490" width="120" height="40" as="geometry" />
        </mxCell>
        <mxCell id="6mpwaXIzWs3BblDAKZ4c-44" value="" style="edgeStyle=orthogonalEdgeStyle;rounded=0;orthogonalLoop=1;jettySize=auto;html=1;" edge="1" parent="1" source="6mpwaXIzWs3BblDAKZ4c-33" target="6mpwaXIzWs3BblDAKZ4c-39">
          <mxGeometry relative="1" as="geometry" />
        </mxCell>
        <mxCell id="6mpwaXIzWs3BblDAKZ4c-33" value="初始化bean实例" style="whiteSpace=wrap;html=1;rounded=0;" vertex="1" parent="1">
          <mxGeometry x="530" y="350" width="120" height="40" as="geometry" />
        </mxCell>
        <mxCell id="6mpwaXIzWs3BblDAKZ4c-38" value="" style="edgeStyle=orthogonalEdgeStyle;rounded=0;orthogonalLoop=1;jettySize=auto;html=1;" edge="1" parent="1" source="6mpwaXIzWs3BblDAKZ4c-35" target="6mpwaXIzWs3BblDAKZ4c-37">
          <mxGeometry relative="1" as="geometry" />
        </mxCell>
        <mxCell id="6mpwaXIzWs3BblDAKZ4c-35" value="&lt;pre style=&quot;background-color: rgb(255, 255, 255); color: rgb(8, 8, 8); font-family: &amp;quot;JetBrains Mono&amp;quot;, monospace;&quot;&gt;&lt;font style=&quot;font-size: 12px;&quot;&gt;ApplicationContextAwareProcessor&lt;/font&gt;&lt;/pre&gt;" style="whiteSpace=wrap;html=1;rounded=0;fillColor=#60a917;fontColor=#ffffff;strokeColor=#2D7600;" vertex="1" parent="1">
          <mxGeometry x="760" y="210" width="260" height="30" as="geometry" />
        </mxCell>
        <mxCell id="6mpwaXIzWs3BblDAKZ4c-40" value="" style="edgeStyle=orthogonalEdgeStyle;rounded=0;orthogonalLoop=1;jettySize=auto;html=1;" edge="1" parent="1" source="6mpwaXIzWs3BblDAKZ4c-37" target="6mpwaXIzWs3BblDAKZ4c-39">
          <mxGeometry relative="1" as="geometry" />
        </mxCell>
        <mxCell id="6mpwaXIzWs3BblDAKZ4c-42" value="" style="edgeStyle=orthogonalEdgeStyle;rounded=0;orthogonalLoop=1;jettySize=auto;html=1;" edge="1" parent="1" source="6mpwaXIzWs3BblDAKZ4c-37" target="6mpwaXIzWs3BblDAKZ4c-41">
          <mxGeometry relative="1" as="geometry" />
        </mxCell>
        <mxCell id="6mpwaXIzWs3BblDAKZ4c-43" value="给组件写的Aware接口" style="edgeLabel;html=1;align=center;verticalAlign=middle;resizable=0;points=[];" vertex="1" connectable="0" parent="6mpwaXIzWs3BblDAKZ4c-42">
          <mxGeometry x="-0.112" y="-3" relative="1" as="geometry">
            <mxPoint as="offset" />
          </mxGeometry>
        </mxCell>
        <mxCell id="6mpwaXIzWs3BblDAKZ4c-37" value="&lt;pre style=&quot;background-color: rgb(255, 255, 255); color: rgb(8, 8, 8); font-family: &amp;quot;JetBrains Mono&amp;quot;, monospace;&quot;&gt;&lt;font style=&quot;font-size: 12px;&quot;&gt;postProcessBeforeInitialization&lt;/font&gt;&lt;/pre&gt;" style="whiteSpace=wrap;html=1;rounded=0;" vertex="1" parent="1">
          <mxGeometry x="770" y="285" width="240" height="30" as="geometry" />
        </mxCell>
        <mxCell id="6mpwaXIzWs3BblDAKZ4c-39" value="执行aware接口的回调（进行功能增强）" style="rounded=0;whiteSpace=wrap;html=1;fillColor=#60a917;fontColor=#ffffff;strokeColor=#2D7600;" vertex="1" parent="1">
          <mxGeometry x="530" y="280" width="120" height="40" as="geometry" />
        </mxCell>
        <mxCell id="6mpwaXIzWs3BblDAKZ4c-41" value="" style="shape=image;verticalLabelPosition=bottom;labelBackgroundColor=default;verticalAlign=top;aspect=fixed;imageAspect=0;image=data:image/png,iVBORw0KGgoAAAANSUhEUgAAA/UAAADCCAYAAAAILOJxAAAgAElEQVR4nOydeXhNx/vAP/dmlwhCLEkkkogQEUTs+97ad/q1K4qWUkXtlGpRtdW+taiqota2YiexJZTQECIRCSGWCIlsN5nfH4nk3iTk3Igl/c3nee7z3Dt3zsw777znfc+cMzNHJYQQZCVmHXtWLKJUn4vUtjMAkkh8EspzAzuKmT7l0YMkCts4YAzc3l+KQ7GL6dOzF8YARBG4uQJnImxw7xtILdsXhabyPHw9/sfWcScqDI2pMyWchuLVpC/WZtkkAOJ4eGEyp87s4fHTBwiVClF6Pj36f4KFHvnE0xNcOPg1N8L+JUldluIVRlG7ZiKn1q3BbtAZPEumlXLX24W/oybRoc59/A6v5UGsERZ2/8Oz9QTKFTXOg3zJxIauwd9nE5FRISQb2lPMoSdVGo+iXLGcypNIJBKJRCKRSCQSiUQ/VDkO6gkj4KeqXDJdSucefbFQv33BJBKJRCKRSCQSiUQikbyalwzqIfnOAvZvmUFcqWG4ezTGqkgxLErWp5j52xZRIpFIJBKJRCKRSCQSSU68dFAPkBS1m0s+qwi9/Q9xCYk4d31MI5e3KZ5EIpFIJBKJRCKRSCSSl/HKQb1EIpFIJBKJRCKRSCSS9xe5Wl4ikUgkEolEIpFIJJICihzUSyQSiUQikUgkEolEUkCRg3qJRCKRSCQSiUQikUgKKHJQL5FIJBKJRCKRSCQSSQFFDuolEolEIpFIJBKJRCIpoMhBvUQikUgkEolEIpFIJAUUOaiXSCQSiUQikUgkEomkgCIH9RKJRCKRSCQSiUQikRRQ5KBeIpFIJBKFJD8MxPvoVeLetSASieT/B08COHTsBk9S37UgEokkv0hJiicpn8/p/8CgPpXQ06Es++0uNxLetSyvy1Mu/7GSZRt9iUx517JIJBLlaAgNOM2yg/9yI/F9LO99r1cp71A+8YQLa4ZSt7InvVYHkPTWKpZxQaKUJEIPr2fZ6j+58fxdyyLJN2L9WdCxKu5NRrP1mrydKJHkTEHwf3EEbh1Lu6p2FLesznf/5G/pb21Q7/v9AVQ9grj+ijyJh/xRee3L/NQ6z8FcS37IkglX+Gzueb7zfRtXPKk8Or+BMR3rUrFUcWwrN6LnlG1cfaqby/cre1S15r+yvdl4so9pXYbzWf8BrLmUnzK/nJCljVEVH82Jt1PdGyPkz2WoRux8aTv8t81D9fHkjI/BkK+p9M121gbH8f/55reOXgZNoeSYH2iz5hgnH7/uufSM4zt/pubo6RgNmoTq48lU3HY7X2R+HUL+XKZjB5ltX8cvsa9T8i2WrNzLZ79u4buA5FfX/wo71be8V5F47hfdNg7epsCfvn69eeFt6iVvxOE/twstv/CjzuLzhGzuSTGd/2VcyIlTk5wxrbuAG/kiVcHg0YWfGdupNq6lrCjlUpMOo1dxNipnf5r/8fcsS3p+zGeftOe7Q+/PXbn33Q4OjS6OqakVfXdEZybeXkkz04p8ff7dyZWB3SD2BPswzeEAg1p8xJqg/LmlGLLpOKqGF19qf0qu2/9L+M+oiEqlSv+YUrK8J21GLOHknbcZa16fkKWNtdqh/TFhZO4XAe8dyv3k++n/dLiyjN6DNpPSaTF7TmzjY9f8Ld4wf4t7PYw8XTi+wh6AB0f/pdt2JUeVYMJyT2rdNaFRQ4M3Kh9Aauhaejf5lNAPZjBtfQ0sH5xixbSeNAuBS1t6UPJ1Ci/akR+O/U7P2Aq0rJZfEksyKFyFn4Z64QikJMZw9sRhPp37M0lfD2NEmf/ApJW8UqQqGwd74kAKzx6EsXbXQVpGaPCf1gL3PJ5SyVcO0Wvffdr27sn8MsaoAZPir3V25Aula3XgeLlEIJLlP/7F+WodWdegOGCGi9nrlOzIhC97USuqMI2qGeWDpK9fnpFrM46PrQ3Ag/P76Xb87dT7Znk38iWd/4EhM4Jps/E0i3vYkvW0kHFBAkDEZga1HMS1prOYtsGLYtEXWDdjBC0CEvH3HoXrG7/iqsOEA7upFWZNo9Ymb7qy/xSGRYzw3rCTu10/xuZdC5MDRtaeDF23j5Sutfly+CqaHR6Js+pdS/UfpPwnbFz3PxxI5lnYWdbOHEPLiwn4Hx+P+/sYEl+GZTeW7h2Jh06imlKV35E8b4X33/89uXKBq6ltmDm5K42M87/8tzuoV8GrfJDaqgiNrNK+3wlRem9QTWl3Wz5yf13hlBHwy1IOlByFz+bJ1DcB+IBGVndw6ricnd/1YJi9VmaV6pXtzY45jo274ZifAksyMS6Gp1t5qqT/bOpejIfj1zLncCgj+ji/U9HeKSbF8HIrTyUAXGlS6BHWKy7y590WuJfNW5GRd+5zz9iZPs3daJKPor4uhUqUpVEJADV71BBkbUcjN9t8KNmA0k4efOSUD0XlU3nqImVoVCTt+507SgNcfrcjv3kX8sXhvfpHrlYby6/dsg/oQcaFV6J3ewsuUYe2sSdpAPs2T6KtKUArmlqFYdtmFTsDRzHRI7cSXhcjStfowEc13nQ9eeA9twNNvUY0OrKO3298zOcu71qal2DszKCJQ1ncbAkbzo5gdp03/yDr/x0W5fBq1Cj9eqg5TYrcxLrjL/x5fTzuBWlAbGiLR6NGNHrXcrxV3mP/l47awABIQpMMvIFB/UsfT/p+fwDV8FCu+gXRo8cBrBp5U3v0Ff66qztZ2X/pQVSdArmsnegXQHHPYywNz1KoIUTnUp5iYsLo5Lk3c6p+TvWlExsSwdQxx6nSfD8lWh3mw5k38I0Seag0iZAbV6C6J1W0rpGLVPXCnYtcD8mS3dCA6BPz6VHLHqsSztTuPp2/bmeZNhWylHpZp8jkOM1EQ6Tvcka0qUn5klbYuNWj21e/Evg0W0Zig3YytWdDqthaUaJcNT4csRTfSE1mhrgd9Eqvy3nUCXi8mMZa9Xf7JTp7obng+8s3qOae5mrgYXpM+QarEd9Re+Gf/PVAkyVnKg9u+DJq7iJcPptBmS8X03nTWS7FZu2PBAJO7KHLlLmUGjqZQp/Npf7i/ey+qzUNKvEivdKndjvvuAuJ52msNd2428lc1p4Z2eLlAHfuPuDRi7Swg1QZtISlIbdYsmwpTiNmYPfVSj4/eodneWoHxN65xNRFS6kyagYlRi/gwzXH8Y3OavepRF47yYjvFlL+0xnYjFtCt1/8Ccy2LkiBXvTKlx0zM1PMSCFRp+uUyJdKYmIScYlJPEtKBjUkp/+OS0wiXiN08irSnx79oUx/ynhhz4FXDtFt0mysPp1LvSXeHH6UZRptrD+d0m0wbRr/Epbez1KYPnaqpDwANIScP8iAWfOxGzYdm7GL6PiTL2dj8uLXlNfr+8s3L1m+sIwVUXrK90b0osyuFPcvAJfxORCD84fNqJhjxJRx4ZUYGRB9cgEf1XWmlE1F6vWayd/hWacPa4j0XcnI9nWoZFsKh6qN6Dnpt2zLFyCJ0D/n8XGLajiVLIlD5bp0GbuGc1G6/vTUJGdMO27g6vF59KxdjlK2bjTq+x2H3/A02oSE5yBSSNUSx6zFfIIijzC8QnqCPnq+/B1VVPVYev4cS/o3xKm4FXZVP+DznwJ0/V/0L3TSsZd6LM1qd6Qv/2i3jsBjc+nmZYtVSRfq/W9Odr2IJ1xYM5IPqtlhVcKV5sN/4vLFhdRSVWf+1Twq5323A9MmNG95mfVb/F+xJE9BvZr9DDatyMRVP9DSyZbqQ7YTcnklHV1tKN9iMkcf5KW9mZjUbUFri3AO++ZxMUN8OL3Sr52dFz+D+Agaay177bY3S58YwqNz1+jW/W+sGh+k4birHL6fRUNB16jieYylVx6xZMJxnBrux66zD5/vfJIlTgseBIQwavhRXJrsp0z7o3SeF8qlmMwcd7b5oup9nVCA1HsMr7uXqiufpP0ZHEQ1zzNsz4jryQTsCaBLz4OUqrOPQk0OUv+LK+y+lX9Lcc0si2BGAok6alHqd5MI2f8dA5pWxq5oUWxca9Fx9CrOZrFTxeclzwjYPIEutV0oZWFEoVIu1O81jd152lAsiu19bFHZD+bPx5mp97f3ppTKmVEHn+jkzjV+6KGXtPau5+qr4qA+flKh/4MUHvitYVS7WriUsqJMpTp0/vJnLkVnuT5Q3B/6Y2FRFDVPiX1DW2O8+kn907vM31aEdsM96P80mrUrb9JpgjFXfq6AS15mKyc/YPG2ovlTnnlJvl5Vmy8AroXSfmF8zvmi7zByyD8cdHRg5qQK2CQ9Y8f667QclYzvz25U12uGRjLJiYChoe7TGkMDDIknOWt/Jx1g8aqatJu+mv6P/Vk7Yzqd+hTjyrHRme0t3Ymlx6tm7KQcuXMUvTZlrznp8kK6NJ/Ck04z+HpDdQo/PMOqaX1oGqbm8q89M6d3PtzLyOZdOej2FTNXTMEm8Ro75k6iZecYfI9NobopYFqXCd7efAzc2z2WfpvKs2D78Iwn2MXdzPVRSibPrzD/sA3tOnWmf1w4a3edoNNyM65Ma4pL+i16zV0fes735l7lJswcaIvls1us3rWHppGpXBxXF/v0fPFX/qTNT1dwb9ma9T2KYZYUjfcBbzrNS+LEvM40NAaMyjHh835p7fDfR79zViwYUS+zHXa5de4Tbj8A87KFsNBJT2T3jiO4VWnEsrqpXD1zhCmbNqK2/oKF7iZ6tYOnlxk59zcOlq7LzL4tsEm+z459h2n5QwK+U1tTPf1OXVLYUbosOMoT90Z8PciOwk9vsWr3HzR9qOLy5zUy+leRXvTIB4BIISExiThSiHt4m5W7L4Fzc3o4ZGZRJF9iAP2Hb+M31YvG36PViAsZZbi2/oRrPez105/C/lCqP714foVvD5ambZcuDHgWypI/jtF+ZSECJzeg3Is8Zi58/eWgND8Udor2vz/JXo4+dqqkPOBpwG6aLb+Ge4vmrOhQBPEwhBV79tPqDlycXF//p7oK663c7H8cr659wZRMwME/GHnZGAstm1Ik3xvQi152paR/AZKiuH8PyjvYvUR5Mi68kkRvflzrRZspy+nz5DwbZs2me79i/HN4FOXT25t0ZTE92swgpt0Upq+phsWjs6yZOZCWt9Vc2Nw9ox1PD4+nVbe9uH05jSVf2SAifFg1ayRtAgV+fw3Vtfsnu5i30p02U1fR77Evy6bNoOvgYlz66xMceDPYNfmQmvFfMX5obazmDqS+rSkYWWBdWivC6K3nZ+ye9S1urcawrFcqV7fNZsrATqgdAljYNL1ci2Z8ffx42vkRsJz2I1+xf0n0H3y7vAptp69jwCMflkyeTPsBVgQeHJZh9492j+HDoX9QbtjXrOlQAYMwbxYsvsVrrVJ93+0g1YoPerRnwvhfOPmVF41zaILyeuP5J7QYoxd+yvKhM5ngMJbB80ex+pMZfP3bxzT9zEmv9uqgKodjJdgeeR+oqH8/GJdgwtKaafZ3+F/6/V2IBfMdM+2vfJZhgSaKRVuK0HZ4VQY8eciSZcF0nGzMlbXOun6SFHavDMKtrjPL2gqu/nWdKbPPobZtysLaafPWNaHB9BwaxL365Zk5owiW0Y9ZveoKTW/BxWWO2KugjG0hzMOfEw443o8jqKwFZrfiSKQoRvfiuF7CHIdC6Vo+G0ibGXdx71uR9aPNMUuIw/uXIDoNS+HE7qo0zMsMbJFMQlwccWiIi/Bn5Tc/Q4tZ9NCaZaPU7z499CXNOuzCfeJMVkyyRYSfZMWMYbT6V3Dx4DBdO1VwXsYfnUabvltwnzSf9XPsMUu4jfeir+jUOpYTgT/Q0FS3PxLj4nTf0mJgTCFTo/QZMyXp9sMK+nl2ZNT0njRY2hLLx/uZOHoLVp8fZnbLopnHKYkfeujlRXvnr6r28jioj59U6P8011fSs+lY7rWfycz11bB8dJbVMwbR9HoKF3cP0r0+UNAfeUFtZkohEkh8U/eXxUvwmf+3oM4ZseNpZlrsifPCuvoR8UNIZprfEm9Bx39FgPbB5y4Jq+pHxZLb+pf3goitJwU1/YX3ywTMpb4XRG73EdQ+I7bHZKalht8U7VocEpP8UpSUrkWs2NoTQc+tIlZH2FWiGcbiMy1hfSaUFVh8JHZEax3913BhTU3xQ9DLa7i5pJHA6nNxPEv66UmOAucvhW9CZlrM3sHCioZiWWhmWuS6tgLznmK7Vr2pIatEO3t3MelEouL69MVn82zB0I1ih5ZiYi9sE9YDF4of7mSm+f02V/DFHnEmOTPt2fnfhPXARWLR3cy0oL2LBcN36MoVFy0u37ov7mVvhri5/8fs+bXw+22uYNx+4ZeQKGITEsWzmChxZNdqUXrgd+LLf7WUestbuA+cKFp7aylQEyamfDlRWP8cpFuegnZEHlotGPKz2K6ll9T7PqLd5/PEpH8zDz69ZY5g9C7hm5SZL8bvV2E1cKlYdl9/vSjN5/fbXMGgSZmfgVNEpQUHxNHoVB39KZIvNVZcDw4TfsFhYvfGBYJPNorV6b/9gsPEpQcJuvUq0J/S/lCqv0xuirGfThTVdkbk9GeaPQ9eL7Zq+auoY+uEeuBKsT46x0OE+PcPYTVwsVhy7yX/i9ztVGl5EdfOi83+EULLrYnokz8J9cAVYl0O8kV4rxB8/Jsyf6qgHWmkiNunNgunQd+IPj4PhVZX6i1ffulFqV3p1b+xO8T/TExEjy2PXyKQjAsvw3eikzCx6iN2arf378+EjUkdseh6ZtqZKRWEScXx4pR2O/Z9IkqbNBErbmWmRZz+XWzZf1nXrrb2EmYmbcSGyCz1Fukhtj3MTIva1FWYmbQVP+Vq169DvLi26WPhZo7AsLTw6jZOrD4WJp6/JHeueg74VriDaL0qPDMtyV9MqYSwHnM052OOjxVW1BVLbmb/y2dCWYFZV7FVWy8bOwk1H4j1GXqJF9t7qwX1FohgrTBwZ20bAdXEvMCXCfty3nc7OPi5lTDpsUXEPNsrBllbi8G7Y4QIWyGamriKmf561pu8T3xsYiIG7IgTQtwX69rpfneY4KN3e3WJECtamgirzw++LINibm48Jmjwz0vtz2f+34Jap8RWrX6L+sNXqKv7iA1aOhXXrgr36ntE661aHjD5kZjSfo+w/jYzAPst8Ra0uSTOaMXpZ8f9hXX1I2LRi/aGXBM1q/uKzU+EEOcuifIT/US37tdEkBDizjYfwdCb4kWJQRuOZpf/Way4fC1G3IvXUxlCCL/prgLQ+piJSl3niKP3slwPKfS7Ead+E5v3Bejay5buQk1rsU7LTpWdl0IE/VA3u7+ICReXA66Je1pO5uaSRlnakf5pu05EZWnzg31DhD0VxJfHI4T3Z85CXWms8Hmqm0dp/FCqF33joF7x6BX+z2+6q6DCBHFGK+Q9+3OYsKa2WHQji3wK+kMpmsQ4ERsbK54+ChOHJ9UVZlWmCr+k3I/LC69+Um9bBLfCmT/NnS1xI5Kw+5CnBX75XZ4CwsLjwM6eypaZaSo7J/YefAuLMl2q4qZ1s8vczQM3NhEWAVR46VE5kEDErVCo4oazJo649BkvBuUrU5HfCb4FL24dhYVchQpDqaxVr8pxKHvDhr5eW5RQvAzaN8/M7crgxmXCHkHazjPJhN1/AnZlcNOyPIuyNrhxhdCHQJm0NDsHO2wTrjL311M8qlwG51IlcS1VFPfXecTyyJeaI3wzfxsWY2Dv3kxzy3o71xwvBy0FGpSmSU17/IQgHjDTox1hUY+ghBeVtfSiKlmfvYvqa9WXTMTDZ2BbCufUJOLSH4cYlClFRa4SHAUvbnEq1Yte+ivmyfbhNdM2ynt4m41/HKbd3GQOzWxLHWM95FOZ4+Kc1tCQIBNQm+PqbI9XtgqV609pfyjVn16UsMNDy19Z25TCjqtEPQWKvvSot4Ktqye9gbQlDxo0gFGxYpThEY9ieSvyRQf+Sef1wVToOpjV9YvrTPt6N/LpaVfvqn//v8UF5ypZ2utORbZwOwJwSW/H7TCo7IaTTjvcqMDOtHak+y3bOt34CAANic8T0QgwKlOO0hzi0ROgtFa9LjWoUjzzp7VrZWzYw/2HQKk31VhTXPus5Z8Ww/hj4wZ+Xr+KoU1W88vsv9k7uQ6Fcy8gB8riVVVrloiRG016tMZPaNL9n564euGhoxd37NhN1APS9XKPO7dTMatWWWcjNhu3qthwN08tAAqGHVi0pNdHpnT7eTdzctiUUp96DQwMABVqte731Iy1Gcrb+06xK4aHVr9ZO1lix33uPwKKa2c0xqui1oWOYRGatCyGn0hNt9MUwm4ngEsR3LQ2nLMoXwQ37hEaSVp7y1jgQgTh9yAq/BllKtnieOEhISlgdTeOImULYf1CtIpFsY27x9yFITyqbYmzfWFc7cxxf50dxV0/Y/vm/jig4Vm4HxtnTKTdB885dGoWdcxAH79rW7dHehzUshcbR8rgzaNodO001/MS7KrWwvbxduZOdudRs8o4O1XA1dEO9ypkp8hHrD70BdW10wrbZwttJdrOZeUwL9oNacau4EJ85TOT+lkclbL4oVwvQD7GQaUkEhYcBB4euGnNKrSoXBU3NhN6GyivlV1Bfyjl6PiytF+VtmakuOcgNmyfgtcb2nTx1YN6tUp30b2BGgMEKXldrpLf5SlAoxHZ631bGKpzaG9SHtqbknbMrkGUthiU5T9jPLWmcWg0ydnrfVtk1bNahQGppGQsHxJoUpXkg0JVPmR/PwNmHjpK74NxxKtUWFiWZdhHXZlTy5o8nQ+W1fjts9o4AQbG5jiUssLKOKetewww1JlHa0zzHsNonvFbeTs0qSkK7E+kHXN1L6VH7M3ynwpPLXtRqhe99GdkiZuzfdrGMM6ONLB+ztnZvqy40II6dUz0kk8ZyvWXRu79kb/yvahWrTudWq3CEIHI47L1/EREB7Ng6wFWXo7kZqK2QMVfekx+En/7BB/9eBaDZv35tY1ttoHFu5FPT7tS2r+5bPCqN//f4oKBQZb+MMjS3hRSNaDaP4xyJYbpHCowpLpWO0TkSRZOm86afee59SRJK18OO+UaGmTpX4O0C563cP4al/ai53gveo6ZysGJ7WkzZQQrO19gnFteSjPK4v/MaD7jby3/p29xOelF2+4FqSlgoM5iLWp1jptEKqZA2IEJTXr0xrr5enaM6pntX73qzRXl7c0uCLy1bQcNVLr6U6kwhBzioApDXcdG85ENdK+bUsh9HGBaCOfS8dy6Jwi9HU9lT2tc7MO4GZlCXEQild3NM1peqI4b+6eqmbn1Br03JRGvVmFhXZRhY6sxp4VF3q4TzWxx8/JKux7yqkMD+8ec9ZrDir8mUKeLBfr4XRF5ggWTp7Jy91luPtZevJLDHaNcz0so1Gwm+382Zuayr+k9J5x4wMKpNcMWLGdOJyfd9hqUxNXLK4eHKlkpRqsh/XFdOZ2rdb5nYJ3sy6yUxQ/legHyMQ4qRYNGQ3Y/9LJ6FfSHUrxGH8Knbyop8ZH4LBnD6LGbqL3349eaxv8yXj2oTxW6G4akpJKCCgOtlqrVKhBZ/KMQCFSos/ocBeXlN4aGquz15hkjjEyAOA06/a9JQYMZRlk9iCY1h/Ya56G9BmnHtJyDz5yW6D5XVlFc6+6SoaFR9nrfFln1nCpIQY1BxhmU7vQ1ueUDMKNqk47sbNKR5IRnRETe5cBfe/h0zW48Kgymb16epBlZUsnZnpxuauqH8nYYqg0U2J8q7Rjnxvj0rEjWeQPFte/mKtZL3vVnZFOaKqQS/iQWMNFTPiXoYwfKystf+d53nrFlwyYm3qvAkkEfUKOYUVqQuu1L+02Rb7z2lIeXGLbwALeq9uRIr/I5PNR+V/Llt12lY2aBpRH8++ARZHk7fRoyLrySlJQs/ZGSpb0GqA1BNJ3B4Vkt0FkWioriGS8miWLr6M5Mu96R79fOokZp0zS7ClxN5yEXePckEXP/AbHGVtgWS7/NZVSallPH0mHBR/j4RTHO7d2/1jN3rChRGmJv3+UxkP5CIp7fjeC1zt4CYgdGdXvS13Uhv+zxRHd4k9/1Km1vVqK4dweK1c7jHhfvDFXazank3MYBhXAsJzhz7xkhtwyo0NEcZ8cE9kQ8JzECKrQupHWwMVU7e7CzswfJzxOIuB3DgZ+v8OmkS3hUq0/fEq8vtVHFylQhifB7DwELlPvdKLaMbM/EoM4s+fmbTHv5dyXtB5zPozRFqNpvHjv7zSM5LoqI4MscWDSaT3uNxiNsD33zMgNJc4Pl4+dzv3U7mpyYw7iN3djZ30HnlpGy+KE8HqXVm19xUCmGGBoCiSlvuV4oWq46NdJH8LWSjvBNm+0cufsxg97AuzNfPai/E0PgM6iYPhUj9kYMgRSio5bhlCllBlHPCU8Aj3SvFBURR7TaDNusJ5SC8l5gYqKGVEFSCrzO7WGHsubZ6hURIXQYGErVb5sy20ufKz1jnFzcYcMFLif2Tn91EcRc8ucK1bK/ZunGJQKfQMX0q97YKxcJpBIdX7bf0ksxxa6cI1wVFPX0ovILkVOTiI/XYKAVDRycKmWrV4SuoUOTpVTd7M/shrrvUFAbGGS/KZNXHkUSGAcvZmDFht8lECs6ZjycM8KhVFE4d49rKVAzvV/jwu8SSAm6vJhTRSqRt4K5mlycOi7FKWRaGEdHV4Z94M4C/0uEPCbb9Ni0m0vibTyE0aMd4FCyeDa9iChfOsw5TdWho5ntZggYYVeiMERCUSd7Kr/wpkJDfFIqBhmDAqV60V9/2iSF3yUANQ1LFMlorzL58l9/SsvLX/neHPljpw/4JyQZr9YtGe6VOUh4+uBElp2GMzExNgaRQlIqr3jniQJibzJp4XYO2bbh2CAPbHJ8WKS/fPmjl/y2q3RU5alQDXYEBhFP+RymO8u48EpuXibwCbhmtDeAa1SgQ0Z7TbGzd4CrgmLVa+D20nYE88/pWKp/MYFhbTPnZz69nUxsfsj52jxn7wh7+j5ZSvjhEWMUKLIAACAASURBVGQ0L/YZMRhiZ2mR7Yh81XO+UYS6zZpg/Nlcxm+sxLQ2zhhEHGPJ5guUfJ2LsYJiB+pq9OhbnW/3naeOzh/5Xa/S9mbh8TUu3wIP19d/Da86/cnb27E/AxzsTeHAU65poGb66CMuOIZAzOmSMcAxwaGsASH3HhISXpiqtuBkb8b1sEek3jbF2faFDQoigx5wNdGcOh7mFCpkimNFU4b1eciCA3cIuQfkw6A+KTCAAIxp6PBCQKV+9wb/+D7Fa9xEhrfLXA/w9HbyS+Pgq0khMuAEVxMdqVOzHIXMS+JYtTnDRnZnwU8bCYkgD8uKkvl3yRAm+NVnycXt1Nneghqfj2BDo70Mcsy8UFAWP5THI0CvOJg/ftIEh/KusPUK15KhZvp1Ydy/lwjEnS5va6lLSgpZ3/mRn7x6UF8qnk1TrxDbsTjFnzxm1aq7xFSuQFutxpdpYEv7xVcYNyWIuA5FMH/8iJUrH2HTwjPLToyAXSJbcynvBSUqWVElNZSVqyMw9TJOm1Zibk4tN3NMgeeR0fhHpM/nuBaPhhRuBkRx4p5uvtJNy9Fn+QVGj71MTC9ryiQ9Y+f66xwu7sgsD/2vbj3+9xkt5n7Gx32KM3VADSwf+LJi2nqM//c7XeyzZHaNZOvQqcT2r0/xR+dYNWMNMQ2/p23WO1YK8Ow5jFrff8OAYeaM71yJQrFhnNsyjzn/fMDfV5bSPP16oXT7IfSZ2onRHzkSM6IxZRKvs3PeZA6XGc+sWtlfimjj6oF19H7WLG1CYkVzVJhgX7NRRuDVi6JP2LR6P7ENHSkeG8aqXZeIcWhBW611rNXq16HxQW8GLTdjcn0bLJ7eYvWuS2gqtadzhkNSk3DjCB22PqVtu2YMKG+JcWI0hw/6E2zhSt0y2au2sSmFdWIwa/4MINHWGBWG2Jcvj+sbupmtrB1QumZt+uzeyugl+4hp6UyZpAfs/PMwhwvXY5ZL5unnWbcmtQ6fZMBqY8bXLEWhhMecO+XDnIjy/P1tV5qb6aMXPfWXGI1/YDAPSOHZo3A27znNtRK12VBFX/nyX39KUSrf84fh+EclApFEpELsgwhOBKat+HNxtaWMntesmeUBYU/RkMjN4GBOPALMSlDLsajOE5jc7FRZeSXxdDZi4fG/mG9VE0+LFCJvX2NXWCIvm91bopw9VcQpVv5xCdNK5mn+VEs+ZfVqOLB1M/OeleOHrqWIvBGs9eRORamyzrgWBvIgX/7oJf/tKg0nPuxai6+mr2Tb1Lb0t82eQ8aFV1A+km3DpxPbpx5Wj/1YO3sDT+t+SxutMUn17oPxXDSXQZ+aM65jRczibuP36wLmX2rFnn8W0cwCwAXPepb8uG46C2z6U81Kw/0rB9h9KYbXWUILwOW5VKs5neCmSwj6ayg5dLECivLBkE9w+nAK3Ycn80UHNwo/D+bPxdM57DyYA40LZTsiv/T8PPwC/qHpQ8uACDQ846bfCU5EAIWdqFXdjpeNEXPC+eMVrPHvyYj+tVkHmFfsw+qZHdm5c59+gmlTEOwgnUrd+1NvymhOUY5mGan5X6+y9mqTyrWflrPfoDVrWub1LmUmNk6WWMc9YM2mOyQ6GaBCjb1HyXQ/nv9Ua1eOxpuDGDTRmMntLLF4/JjVq+6iqetO57KZ+RzszAkPfMwNAwu6GIOdgwVhBx9hGG9OrYzrFxUJF6/T4ft42g6pwAAPM4yfx3H413CCi1lTN6/7dMXewv/ECR6QzLPw82z+Zh7X3MawoWmmn1Tmdyvg2aAIC1dPZb7NQDyLa4i8/Be7/ol5aRx8NQYknJlLh09v0Xb2NAbUtMH4+W0O/7iSYJsO1M26Dl1zh4ATWV+CqqZU5Qa4pj9oSwxYyOBJ/jRadJFBjiaoP1/G9B01GTN8FY33D8c5/XpIafxQGo8AcAxjk8I4mJufVOr/qn30GY3nfcmgAUWZ3LsqFg/PsnrGajQd1tL5LWyzBhD3LIZkimD5hs6xVw/qC5VhbPcUFiy8xNH7alxrOLJrnAsVtMfCpR1YtyyFmcvCmDglmNjChajb3J2/httmXz1Zwo4p3ROY/qryXuDqzOYpzxmz4TLt12iIV6vAoyIR68tjC9w7FEDjxVr3u9SwePo5FoNOPqxsWbY6lblLQ/j+m9vcU5tSs74L3iNcqJb9WiZX1E5D+PWoAV/PWM30gd/zvERlGvb7jWMTumXfi6t0b6YMvcf08R9zNMwE12ZT2PX9pzm3N53EhHgwNc62FsjYYww7D5oxa84Gvup7g+hCjtRoNZg9R8fonijWHVl26HfmTl/M98NWcM+wLDXbzMJ72qdUy+H1HsbNJ7Ht23uMm9+ftuFP0eDEdL+bzMh9IU52TCsztnkyC7bu5OgTA1xd6rOrd0MqaD3NM7RtwLYvDZi1y48p604QZ2pFbc/2HOlSm7Ja+Rxb9OGgOMCcYwfp+2csCSaFqVyuChvHtKZVDgNIY49WbGsfx7gDO2j7LBkNlkyf/BUzXv9mdo4obQeWHiwbn8Lc3334fqM/99QW1KzcFO9ujaim1cnG5Zqy8wsjZu0+z1drnxBtZEmNSjXYM6mJzoBZqV700l/MJfotuAQCilgWw7NCYw50a0IdLXtRKl++608hSuW7d24PjXe82OxJBWf30PgsIJzYvORjemd/mPZKdMtLK3Lx+g1pfsjxAyKmNNQZIORmp8rKs6BX/96E/+rN2l9/4766MA09GzKns4bRF87mLKhDQzb3fcKY/Xtovz+eeJVKRz5l9abyJC4R4kL4YlmWl8AKFZ99PpulVYE8yJc/esl/u3qB66CvGb76A8b3m03FHVOonXWmkIwLL6f0/5g0+B4zJ37CiXATyjeewO/zhuu8xtbYYzS//1mIOd/9zORBN4k2s8ezxQC2HxytNbCxpscPv3N7ygzWf9GHB4b21Os6htkTE/ni11V5ECyT8FNHuYY5vYZ0z+OAPo0SHyzg0N9OfPP9T0zoG0JsEUeqNhnL/vWf0coqe/780vO9XWNoPEr3An5xr8Zp50ez5UQcHq5fu0wr0m/DBbp+G8qtaGNsne0p6j+RL7Ot79eDAmAHGTh0pl/rLzl1QDsx/+tV1t4XpHLv4Hj6fX0Rz0kn6JEPy8qM61Zk2yeJjPv5Im0fp6LBhOk/t2LG669RzBFDx/JsW6Vm1srbTJkWTJxFIWo3defIsHI6/rmsjTmpq6P4s04pVgKGdhZYHg3Gx9KWCVq+17FHTQ6KQOZsD6Lv2iQSzI2p7G7DxmUVaZXXBzrBq+jXeBVgSBF7NzybzuDAzNHU0bonp8zvWtNr8S7CJ05j7ee9uG9YjobdxzJnSgKjN6/Ik2iOQzZzMHUWc1ZPoe/0cBKKOVC5zv/Y+OdUWmUdJD7dzsjG27MkGvOZdyJLWwLxF/ju46lcrr+Ai0PKp03gM/bgixXT2FlrHJ8sb8bfI13TBokK44fieARg0YWxQ+NZoCAO5uYnlfo/Q9fhbDtiyKxZ65kyYA5xxVyp3XkdR6b0e63rA31IiI8DLDHV5y6rHqiEyHnZv+/3B2hwrhxB21zfzEaEkhy4w9q2zgxXLefOvkF5e7f2O8L3l29ocLUOQbObS3uRSCT/ORKCNjG4ywj2pjZm8JQ5zO7tof/O43mi4MaFgsEzfu9tQ9/TQ/C++gON8vJu6/8H3F3bBttPirLj6Ra6FLTl3AWdGH9WT57Idz+dp/igdfzxQ2fsXv1ITiJ5b/H9yp4GR0YSdG7c/7vxQurJ8di33Ev7TX8ws7U9RS0KYZyPO9hKt/COeRTky7/3U0h5fp9Lf8xnxt+uTD7zkbxwk0gkkvcIU9e+bPT15I8Vi1nh8y9xb3BQL+PCWyT5HCePJOM+agAN5YA+g6Q7lzhzMwZEEtHXD7Boyl84DNlPMzmgf/tEB3AitAIjf1vO0LYuyC6QSAom6oZjWP25H8P6V2NDajkm+V5jWo38K18O6t8xF378gFY/xqI2s6ZC3a58e3ImQ2q+nec/EolEIlGOumhluk5cTdc3XI+MC2+Ry6c4FNOQMX093tZLwgoEjw9MpvHH+0FtgY1rFeoP+Y0VX7V51R6rkjdFuUFs3p/1NWESiaTgUYY2cw8TNC6C23djsMjntfwvnX4vkUgkEolEIpFIJBKJ5P0mH2fySyQSiUQikUgkEolEInmbyEG9RCKRSCQSiUQikUgkBRQ5qJdIJBKJRCKRSCQSiaSA8spBfWRk5NuSQyKRSCQSiUQikUgkEomeyCf1EolEIpFIJBKJRCKRFFDkoF4ikUgkEolEIpFIJJICihzUSyQSiUQikUgkEolEUkCRg3qJRCKRSCQSiUQikUgKKHJQnw8kPwzE++hV4t7T8iQSiUQikUgkEolE8t/kPzCoTyX0dCjLfrvLjYS3XLV4woU1Q6lb2ZNeqwNIet/Ke695h/0mKYAkEXp4PctW/8mN5+9aFsn7zzkmOZtSd8G1fMr3/w3pnyUSieT/BzJe/lf4DwzqH7JkwhU+m3ue73xTXpEvgeMrz1Cz5X6MPPei8tpHxaWPX6PeOPzndqHlF37UWXyekM09KZZjtp30NjWl+OhDr1XeqUnOmNZdwI3XkPj9Qmm/5S8hm46janiRE2+txndN/th9yNLGqFSqHD4mjDz4BsTOxlmW9PyYzz5pz3eHEt9GhQWCkKWNURUfnas9a459QSmVCpXVCA79t+8WvhOkf84fpH9+P/yz71f2qGrN57r+hyrn7BTsVdWZfzWf8uW13usLqaUyZfDe+CwZn7KluwGqDj/xUI/iE3cN1O0Dk+G8lRAJ+M+oqFO3SdFy1On9LQdvv/uY+S71oi8yXkoKKobvWoDXpwQTlntS664JjRoavDRX8tkgeq2Ope1ET+aXM0ANmJS2yHOtSed/YMiMYNpsPM3iHra8tGYVqAAVqvwp7z+Dsn6TvB75aveW3Vi6dyQeOolqSlV+fTlzpw4TDuymVpg1jVqbvI0K/1NcPnmQh40a0eCENz4B0MLrXUskeb+R/vlt8N/xzwUYl/o0d0jkt9MXoX3dzHSNP6ePplJvSn1K6FGcUb1xHD8+EIAHe8fRbUn+ipsrjoP56ae+OCJIir7Kru8m0arVQ3zOL6C++VuWRYt3rhc9kPFSUlD5Dwzq1ZR2t+Uj91fnigx5yj2z4vTpXoYmr11nHN6rf+RqtbH82i2XAbixCaaAucmrBiIKy1PldmugIKGs3ySvR77avaEtHo0a0Sg/BNMbI0rX6MBHNd5J5QWcMHwOXcHjg9U0CBvKkVM3meHl/K6F+u8h/bNET95r//yfsudXoKpGg9ZF+O7kOUKpi+OL9MAzHHnkRPcGLnoVpy7pRqOSad/vXMtx/uabxdwBz0aNqAJAY5pXFVxx/Iwle6dSv1fRty9POu9cL4qR8VJScCm40+9jwuiUPl1N5bUPlecxloZnzSRIjNcQF6/hWXwqqCE5/XdcvIb4ZJHHyi/jcyAG5w+bUTE3DRpaUNgSilm+6u67wvKMDIg+uYCP6jpTyqYi9XrN5O/wrHODNET6rmRk+zpUsi2FQ9VG9Jz0G1efZi0sidA/5/Fxi2o4lSyJQ+W6dBm7hnNRqTq5Tk1yxrTjBq4en0fP2uUoZetGo77fcfhOci4NfwmK+g18vz+AangogWev0a3731g1Pki9L69y+H5qlpzJBOwJoEvPg5Sqs49CTQ5S/4sr7L6lNWU0Ppxe6XU6L34G8RE0flG/1z667dXWYSohx64xYMAh7Orvx6btUTp+e5Ozj3VtRbl8EBsSwdQxx6nSfD8lWh3mw5k38I3KanuCyPPBjPjkCOUb78emwzG6fR9GYGzW0gQPAkIYNfwoLk32U6b9UTrPC+VSjG6eN2P3ueP7lT2qdusIPDaXbl62WJV0od7/5ujay7Pd9C2iovHSEN2DU04xrpwKuy+OkZE7+hc66UwnrUfWwwC4/B1VVPVYev4cS/o3xKm4FXZVP+DznwJ4plsJD/zWMKpdLVxKWVGmUh06f/kzl6Kz9K+Sdmj2MVDlzISV39PMriRVBm3jZsBy2jmVwKHpRI480C5RQ6Tvcka0qUn5klbYuNWj21e/EpjlvFRUb9wOeqXrw3nUCXi8mMZaOur2S7RuodG+HPGxpH6NHng1NMb3+GmeaP19Z82HqOovIhQg9SDDC6uoOicg7c/AeVRT9WR7xq6dSYTs/44BTStjV7QoNq616Dh6FWez+A3l/aFMLwUC6Z+lf36f/bNe/gowNCD6xHx61LLHqoQztbtP56/bOdmzkvP3OUG/j6e9pwPFi5ejfv8f8X+mzuECVGm+/KzXmDoNm6M+5YOfVj/dOXuSQKsPaFhVO69C/6cQ/xkVUVWZzWXtxBNfUjxbnMu7n1SVq05t21QCg2/lobxnBGyeQJfaLpSyMKJQKRfq95rG7mwbbSiLq4rQ5/pAaTsUxyNkvJQUaAruoN68JF+vqs3xFbU4/rk1ljnliY+gf/2/sGj4N+7Ln0H8HVo1/BuL9E/1ldE5HZU7SVHcvwflHeyUCIpFMbC0eMW8J6XlJXrz49qntJmynPXz+2FzcS7d+60kWMs/JF1ZTI824zhu2Znpazay7MsWJGwbSMsRvxOlVdTTw+Np1W0VD+uNYcmWX/hxXCuSdo2kTf+1ac5Kmye7mLcyhjZTV7H+225YnJxB18HrCVPQ+mwo6bcMIe/y7a9JtB1elY2fl8bin2DaTw5BOzTFnw2kzYw7PK9TnvULa7FvenkaPo2g07ArnHyxjMy4BBOW1sR7sRcbO5iBcXEWLPbCO/0zqVbmhJWnvpdo9mUYD6s5s2JeDVYOsibpcCCtxodk14sC+Yi+w8gh/7DhWTFGT/Jk05iy2F65TstRV/lHa5lbUtB1ugy/xlHzMnw905NVA6xJOBBA0+m3dfpNExpMz6GBHCpUhpkzPFkzqCQpR67QdGIot1/Ezzdl96SQGBdHnPYnIZlsYTv6D75d/oS209excV5PLI5Ppv2AdZl6KdyKXj2Lc2LLLm5ql352L7+HlaV31/oYvUi0aMbXx49z/Phxji/t+Wp74Rm7Z31LcO0xLNu8mi8877FmYCemHc288tZcX0nPpiM5VLgrM9f/ypqJbUjZOYim/Tdk6k9pOwCI53xIMb74cRS2u6YxbpcpQxd+QeWA75jxa2brki4vpEvzMRy17MLXG7awakIrEn7tQ9NPftPpX0X1mtZlgrc33t7ebPy0Clh2ZkH6b29vbyY10fU1CaeOcyi1ATWrFaF6rTqkHjrJWa1r8zKOLpgH3SIc4M5NgirVxOz6TRKB1IjbXHdwxiG9yKeHvqRZh+U8rP8lK37fxsoJrUnaOYxWvVdnPz8U9Ideennfkf5Z+uf33j8r81dpjT7A4lVPaTd9NZsWDsTmwmw69VnODW17Vnj+JvnPo1uPJdxy+5Rlm1YyocEtFq06g2mWFijOl8/1Fq/XhNqpRzl9QZOekoDfqeMYt2pMLaPMfPr5v/zjtfzk03BC74O1VeZTeqXlxR+dRpu+P/G8xVTW7z7IvvVTafhoLZ1aT+Kk1rher7iaG3pcH+inl9zjEch4KSngiFdw9+7dV/39/nDukrCqflQsuZ0lPSVBXA94JPwCHond8w4L6p0Rq9N/+wU8Epcik/JWX+wO8T8TE9Fjy2MFma+JuTVNRLt1d16rPN+JTsLEqo/YGa112N+fCRuTOmLR9cy0M1MqCJOK48WphMy0mH2fiNImTcSKW5lpEad/F1v2XxYxWnVEb+0lzEzaiA2RWeot0kNse5iZFrWpqzAzaSt+uvfyJiniZf0mhPCZ/7eg1imxVau9UX/4CnV1H7H+QWZa0Iajggb/iOPaBz+LFZevxYh78dnLvbnxWPb8WkRcCBObj0br6mXvaaGuflKsi9JfvsjtPoLaZ8R2rQJTw2+Kdi0OiUl+KRlpp384IPjwkvBNzMwXc9hPWFU/JpZFZKb5LfEWtLkkzmiZ7rPj/sK6+hGx6EX/vgG7v7mkkQCyf9quE1pqET4TygrMuoqt2vaysZNQ84FYr2Uv8QdHCmtqiO+vvUhJEb5fOQmcvhJnNS8R4vhYYUVdseRmDv8FfCvcQbReFZ6ZluQvplRCWI85mpHkN91VUGGCOKOl52d/DhPW1BaLbujZjuS9YgCIPtvjhBD3xZoPdb/bjDuZcezpSY4C5y+Fr/Z5uXewsKKhWBaqZ71a3FzSSGD1+UvtWYhU4TPeXuA+SwQIIVJ9xosyOIgpZ1MzswT9IGrSUWx+LIQ4PlaUHzhQdKs5TwQJIe6s+VDw4RpxPz1rxKnfxOZ9Abrnx5buQk1rsU7LbyjtD6V60Z+zYqKTiajz/dV8yvdqpH+W/lmI99w/6+GvfCaUFVh8JHZo2/Nfw4U1NcUPQZlpSs/f05McBa4TxTkt/UWs/kBANTEvMI/58rFeIfzFlPKIat8GpP1MPSXGlc3iv4Qe/u9F/lWtBcbDhHf2v4QQ6fEo3TdnkEOcU9pev+muArdpwi82VsTGxoroiPNi02B3gVlLse62/uUF/VA3e3yJCReXA66Je8+z1KsgrirVi9LrA8XxQ2E8kvHy7cRLyZvjP7Cm/hWoTXCpkraWPeSiAahNcK1ixdvd88ICyyJgWTjvm/Jl4FwFN60lUeZu7lRkC7cjABeABCJuh0FlN5w0ccSl33Q2KO9GBXYSfAtwSEuzrdONjwDQkPg8EY0AozLlKM0hHj0BSmvV61KDKsUzf1q7VsaGPdx/CJR6/Wa9FLtieGi119rJEjvuE/UYXuxcY1exKLZx95i7MIRHtS1xti+Mq5057q55q9K2uj29ARAkJqSk6aVkIcrwgEdPAWv95AsLjwM7eyprPfJS2Tmx96CTVkEpRNxNBOfCOKdoiEvfhNegnCUVuU9wBGCbli/sdgK4FMFN6+mBRfkiuHGP0EjS+vdN2X2Rj1h96Auqa6cVtifbKj1XLzx07MUdO3YT9YAMezFt1I3/2S7ll11XGDvBHVL92bsthIp9ulIzz/tylcWrqtZsFyM3mvRojZ/QEA+YkUhYcBB4eOBmnJnNonJV3NhM6G2gvH7tADA0MABUqNW631NTXzzSSiDiVihUccNZ57ysTEV+Tzsvy+lfrzKucdL7NkUaelERUHl40UA9jyOngplVK32taNlyuLCe8AiICrlOmWrdcTx2khANWIVdp0j5chlmb1u3R/r5oeU3bBwpgzePotH1G7n2h556ed+R/ln65wLgn3P3V+m4VM1izx64sYmwCKACKPdrL/K5U1HL79pWrkYZ/taqUN98+VUvgAcNWlkx28ePKKpQMvgsx8M96Fpfd/akfv4vv9DTTwZ+TU2LrzN+GpdtyqSdPzGgrP7l2VWthe3j7cyd7M6jZpVxdqqAq6Md7lW05dMzripA2fWBvvEjt3gEMl5KCjr/7UH9myJ9R3tlmGNRBIqYv2L6vdLyDAx010uoDTAgiZSM5YkppGpAtX8Y5UoM0zlUYEh1rWWWIvIkC6dNZ82+89x6kqSVL4edkQwNdDfvUxukGc6bW5qdhoFKt16VCkNAaNVbqI4b+6eqmbn1Br03JRGvVmFhXZRhY6sxp4UFRuiHiIpiwaKrrDz5jJs6b7gxy5N8Go0AtSqXdS4irQ9P/0vphv9m+9dTk5lPk0L28gzUGLwo401iUBJXL6/cLz6NcrIXoaMXjOvTvY8Ti3/5g4Dx7rj772VbSCUGdanxGpszGWGoU7EZzWf8TfOM3xo0GrKfRwbqLOeRHu1QREpa2bsGUdpiUJb/jPHMuvw53+oF7vpw6CI0+KwKKo0GjZkHXjVgx7HTPB7tghWAmQPO5a9zK1xDaPANKtdviovram6GJxAXepPKXg4ZfSIiT7Bg8lRW7j7Lzcfar0mqlkPlufWHnnp535H+WfrnguCflWKozsVPKj1/0/Nl87sGWS5A9cyXb/UCGFG7YQvUP5/CP3EQdc75cM62FQsr6ebSz//lF3r6Sefh/LZ1EE6Jp5jV5nOiRi1n9gc2WnFVeXmFms1k/8/GzFz2Nb3nhBMPWDi1ZtiC5czp5JR+/uoZV5Wg6PpA3/iRWzxCxktJgUcO6vOCmQWWRvDvg0eQ89vptShKn+0J9MmP8lJS0LmXnppCCsYYZDgCA9SGIJrO4PCsFlnWjakonrGBZxRbR3dm2vWOfL92FjVKm6Y548DVdB5yIZf2vG8YU7WzBzs7e5D8PIGI2zEc+PkKn066hEe1+vTV5100JLBljh8Tb5VkyUw3alinB6kbIbSfHZPbwTliaKiCVMGrt9FRpfVhNWd8Pi9F1vckFC+Xmc/QAEjOUl5KKikvyigwGFC3Wx8qzP2FXf9MImHv74RU7Uenqm9yv2VDDA2BxJQc9Gf8BvVnkFZ2yzn4zGmZpX9VFNfzKYY+PPU9ynFAM9gOo8Faf1ic4ExiP9qYANjjWDGJM+HBhFy3pEI/O5xdw9kTGk7iTTUVur14xBPFlpHtmRjUmSU/f5PpN/5dSfsB5/Mg3bvTyxtB+ucckP65YPpnQJOai59Uev6m50vK6ndT0Ogco2e+fKs3jaJ1m9Agbj5nLydjcOooFh8OoIbOKDW//R+o1WpIFbr334RAYIA6IxTq6SfNbKjk5UUVPJgwYjn1F3zPX0PX0sYyL+UVoWq/eezsN4/kuCgigi9zYNFoPu01Go+wPfQtBW8mriq5Psj/+CHjpaSgIwf1eUFVngrVYEdgEPGUz+kZwZsp7+ZlAp+Aa/qUuNgrAVyjAh0yZuyYYmfvAFcFxarXwO1FQEpNIj5eg0HGVWQw/5yOpfoXExjWtkJG8U9vJ5NtM9/3GkFk0AOuJppTx8OcQoVMcaxoyrA+D1lw4A4h9yDrC2bV6ZEy54dYz/jnUipe/VwZ3ixzPubTyJvZd0hViENZc7gTQ+AzqFg4XeqIEDoMDKXqt02Z7aUGDLCzzu+SMQAAIABJREFUMYFQKFrZisoZ/ZZKfGIqBhlT2gxwsDeFA0+5poGa6WdvXHAMgZjTxSaPQr4j1DW60sf9a37d9zPsCKLmwM682Vcqm+BQ3hW2XuFaMtRMf0wY9+8lAnGni8ObqtcUu3KOcFVQ1NNLq3+znpf6ozYwAPEye07mzHFvNLaf8PvBzzN0m+zzNfWGeuP7j6BNHRVQAgfn4oRE+BByw42q5cCpghPXg8+QetUF53IvBLzBP75P8Ro3keHtMudPP72dnMfz483p5Z0g/XMWpH+GguufuXGJwCdQMcOeLxJIJTpq27Oi8zc93/YAApP+R+10fd359yKROhXqmS/f6k3HoR7NKoVy/Nx+1Ecf03JinSwDJ/39n4mZGWiSSEqBnN5VXMbWEW6HEv4cPAqlpUXdCiZa7YBtxtTsvPpJY+qN+JIWP3zCN+vG8eEY1/QnyErLSyEy4ARXEx2pU7MchcxL4li1OcNGdmfBTxsJiSB9eY/+cTU3vYCS64P8jh8yXkoKPgV2UP88Mhr/iPT5Jtfi0ZDCzYAoTtwDzM2p5WaebYfT/MOJD7vW4qvpK9k2tS39bV+eM+XqWnr1W8odzylsW9WdnPe3V1he+Ui2DZ9ObJ96WD32Y+3sDTyt+y1ttF6hWb37YDwXzWXQp+aM61gRs7jb+P26gPmXWrHnn0U0swBwwbOeJT+um84Cm/5Us9Jw/8oBdl+KIY9LHRWTv/2mIuHidTp8H0/bIRUY4GGG8fM4Dv8aTnAxa+o6Zj/CxskS67gHrNl0h0QnA1SosfcoiWthAEs8q6pZuCOQ+SUd8CyaSuT1++y6moxbHttbumk5+iy/wOixl4npZU2ZpGfsXH+dw8UdmeWR+RjAs409tX69yYDpBoxvaUmhuOec+/Mmc4JK8Pcf1WmevnqjWrtyNN4cxKCJxkxuZ4nF48esXnUXTV13Opd9iRD5heYOASdOZElUU6pyA1yL53jEq1F50KWvF9O2/siuq7Xp37lStizPwy/gH/p/7N13XFfV/8Dx1wcQVMgBgixFQUVRERAQB7g1ca+0X1Zqw5GmmSMtUxtuG1rmSC213dfKUQ4cKLjLRENBhihKblGUIfD+/SHjwwfS+0EUx3k+Hjwecj/n3vM+95x7zr0fzj3mPMpEJJLJdWIP7GRnIvCUK/7ezkZd517PjqDl7LEMHliJt59rhNXFfSyZuoTMbl/S0/Xu+xeXT7+h+M/9kIFDLRnfsx7lUxLY/+1sph96mo1HF9C2mEtuOLp7YntlA0sXtCK9riU6LKjuF5TzYHmYnRsvYduzN93q1SPv2cOhOx2Hf8/W8Gg+DLh9xbu4enD60F5OmLnTyxyc3eqR8Es4Zsnu+FfP3bEOPi0q8vGSycxxHISPTSZJR/7g10PJxb4+7td5KRWqfzag+udHun92T+L7VyeT8mJzbC7tZ/HUpSQHzqWz3l8EtV6/3j2fp8H0WQweWJl3BnhheWYLq9enFmrPWtOVdL63NaBFe1tmbViK6bFmdG9hOI3E+P6vilcADbM/YtGMNZQNqnJ7urreuOXQsT9dywxm3Mse3HjeE8uLe1k0ZS2Oz68hUO+vO8XuJ6s9y7hXptJx9lw2vrSUThWMOZ4paXtn0e21k3T+4F0G+jlifvMUWz9bRIxjN5rmf99o9Lh6t/MCaLo/KNnxQ42XymPgTqvoPcyr38eu3CE0Xlf0z6ATklhU+jusqmu05O0yup6F2LV5X/Ze+e9kGQfmSpCLrdTqvlSi/zvZXY8XPtFVLLotk4iQD6W3n4vY2teRpv2myh8J6QYpMyRx52cyPNhP3B2sxc7VS55+dZb8EV8wXdaZHTJrUCvxcLIRWxdv6T5mpRyJWirtLXxFf2HL8ImuYhEwt2DsB6eJu4WXzDpypwIVTWu9hc3ZKPQ9LlH6O0ccFVfvEJlxXG9bdprs/u4v6dJ7k9j4rRPLVpvEf8RhWXnM8LzkSpXti/aKb9v1Yua9VvDeJFP0lp7NOndOZo7fIXVarpeKbUKky/Q4iYiLlTbeITI7Jj+d5vhEJDnmlEwatUM82qwX63Yh0nFKlOw6l10wkWRJ4v5oGfLyVnENXC+V24ZIu0nH5PfTWQbpsuXcoRgZMWSbuAWtF/vgbdJ9Zpwcump4PL3zXQLt/j9XV8ZcRugtYRs2oZqQsxJsngNTxJUGMiPC8KgicuITCQAhaL4UtXjrf+eL0GZh/nUeMUMa4CpTDtytJJlybs8XMiLYT9xsK4p9HX/pPmaFHLpc8DxrKkfOatIDf0kTkfOyrHPBf9u/qX/WMyQxdL4M6egtrjZWUrlaQ2n30kz5Pa5gOzX6/Mk52T6jn/hWqyBmIOifg+iPxR9LeWltisE+SbK4I0KX5XkrY6f/NljMrK3F9rmfJTVn3wAbG6lsN0bC9PbMOrNdZr4QKHXsKkhFR0/pMupriTi+WNoYriatuT60nRfjlcLq96p/Vv3zw9w/G9FfhU2oJnReKoe3vC89vB2lonVN8e/zrvx+soj2rOn6vSHHfxgnXbyqS+XK1aRJ/9kStvsj8Su0Cr3WdCWd723Xfvo/MQehzrvyVxHnWXP/lydFDn/1mrSpay/lihq3JEvO71skr3XyFlebimJXx0+6j/lKDhe6B9RW3qJW088+/pE0MTGRFh8dl2wjjyfZF2T3F69LF++aYmNhJpb2buLf401Z+fdVg/i0javaz0uOu9wfaC6HlvFIjZdq9fvHgE7kv5dfSkpKwsHB4f59o/CIS4taxcu9hrMuuyUvvzOdD57zvKep+CV9PEVRlCfTfia5BbF9+N/sebNuCaRTFEVRlMeRGi8fF3de9FW5o7Luz7MyfC/LX3DkcNg/3HjIjqcoiqIoiqIoiqI83tRf6hVFURRFURRFURTlEaX+Uq8oiqIoiqIoiqIojyj1UK8oiqIoiqIoiqIojyj1UK8oiqIoiqIoiqIojyj1UK8oiqIoiqIoiqIoj6hH+qE+KSmptENQFEVRFEVRFEVRlFLzSD/UK4qiKIqiKIqiKMqTTD3UK4qiKIqiKIqiKMojSj3UK4qiKIqiKIqiKMojSj3UK4qiKIqiKIqiKMojSj3UK4qiKIqiKIqiKMojSj3UK4+JbOL3xPP5D2c5kVbasSiKopSE/UxyK0vTecdLKN2TRo0Lyv2QQfzW5Xy+5HdO3CztWIrysMen3BtVv4+m+z+eq4f6J9TuSW6UbTqPE6UdSIm5yPwJRxkx609mhmc9sFzjVoWiC/ybnQ8sx9KWRuiivfi130AZn3XofNdTd8Flo49ycGpddDpd3o9FpRoEPDeDLafS70PMj6EtI7HQtWXJmdIOBNj3DtV13sw5dv+zytwxhqo6HTrr4YRk3P/8njRqXCgZalwo3riQ60Fe5+m/DiowFukshrHlrnvtY36/lxgxpCszQx7cmBW3oCU6m9Ea2tWDjS9uQcuC5zDvx4KRdz+ZD8zdzp/hfYlpeTvqtRvBlwcvkV2M/MLfqo7Ofw7Rd0hTmu1PS3z3kxrPS55ZaQegKCWjChMW+uB/1oKgQNPSDuaxdWtfFP2XpNB5og9zaphiAljYWxXvYDVf5quvnqcmQsaVY/w6cxIdOlwk7M95NLcs0bCVx8SRXVu4GBREi52bCYuAdr6lHZHycFPjwoNQouMCD/Y6L9NsHKGhgwC4sG4cfeZr2SuACZt+wz/BlqCOFvcvuGIrhfgq9GHBupF4FthoQtX6Dyb7EpN3XwJZN5PY99UUXgv6h4yIEIbXKvk+5PFsf9qo8bzkqYf6J5lOh660YygxJtg3cOLZBqUdx+MtKe4a/5azYUBfB1rd68EsXfAJCqIhAC1p20g4WnME89dNpnn/Svccq/K4SSAs5CieTy+hRcKrbNsdy1Rft9IO6vGjxgXFSCU6Ljzg69zEzoMgu9v/PnO8ssa9ymDfuBvPNr5vYd2jUojPzAnPoCCCHmCW90WB+xJo3dqZi/VbMH3pXobPam788e7Snz6e7U8LNZ7fD2r6/ZOsjClXds3j2aZuVHWsS7P+09h42nAOTCZJ4YsY2TWAek5VcWkURL9JP3DsmuHBMoj/fTYvtfPC1c4Ol/pN6fXmUvafLzhpafckN8p2X8Gx0Nn0a1KDqk4eBD0/k61nbhWvDMkJ9MiZ7qfzXY/OZwcLThdOFj53E7ph8UTuO06fvhuxbrmFZmOPsfWc4aSqW0SsjaBXvy1UDVhP+VZbaD7mKL+d1Ju6mXqa/jl5un16HVITaZmbv+96+qzTP4fZxO04zsCBITg334Bj5+10nxHLvstSzPggJS6RyW+E0rDtBqp02EqnaScIPy8GqYSkP2MYPmQbtVpuwLHbDvrMTSAyxfBowoWIOF4ftp3arTbg0HU7PWfHczi5YJr01ExupGZyPTUbTOBWzu83UjNJvWWYd/HoanjTxCmbyJiTelszSQpfyPBgP2rZWePo0Yw+b31HZKH2d52I1RPo1aQ2Va3KUL5qbZr3f5ffCr1Im8WFA0t5vYs/tata41AvgJ5jv+bwlYJlODi1LrqGH3BEf+POsdjomrEgTm/bkZk01DVjwZ/7mf9iIK421jg3eppRX0Vw3SDnlKg1TO4XSEMna6rU8KLT8AWEJ2UapNJaXq20lRcyiNswk4Gt6+NcqRKO7v50H72YfecN299Non4aT1cfF2xsatD8xc84eN2kiIFEYzmMOH9cCWdbWAWaN34G30BzwkP3cFXv4zNLO6Fr/gnxANlbGPaUjkbTI25/GDkbL10/fr5hZHk1x1fS9VaK1LigxoXSHBfucp1DzrThLss5tnMOz/hXx7qKG036TuGPUxnFSqc9tm/oUWB6ucF4oEdbf6+hH7rxP/rn5Of2+k64/Ckt9WLo882VYsSnbVy4ff6WEbljFn18nbC2q02z/5tevOvy+m88X1FHS8OAsnYzroYO5zE7yD+qtv5UU3zGnL+iWHjh2xjOHDvBpZxNmu8PAMxMufLA25/W+6Hb8V0KzT1/7gQOmFFE/arx/FEZz9VD/ZMsfTOffXmN4HcWsnzOCzj+PYu+LywiRu86yDj6Kc8EjyO0Qk+mLF3J52PbkfbjINoP/4nzeoe6tnU8Hfos5mKzN5j/7Td8Nq4DGb+OJPjFL29flPqu/srsRckET17M8hl9sNo1ld4vLyehOGWwtOO9xU0I/cKf0FG2VLhT2mtnmfFdBp2HNWLlKHusDsXQ9e049B8hU/dFEjz1DDcDarH8Y3/WT6lF4LVEegw9yq7cV5fMqzBhgR+bP/VlZbdyYG7DvE992ZzzM8k/fwLMtfDDtBmbwEUvN76Y3ZhFg23J2BpJh/Fxhc+Lhvi4coaRrxxixfXKjJ7kw6o3quF0NJr2rx/jkN6rVRlR0fQadpztlg68N82HxQNtSdsUQesppwrUW2Z8DP1ejSSkvAPTpvqwdLAdWduO0npiPKdyx/fURF5s/gdWgRtpsPA6pJ6hQ+BGrHJ+vBfdZVDU6tpp4s+BrXX+X+kzjnxMr7ZvsL1CL95b8S2LJ3Qg7bsBtB7yQ4FypG5/l+Dnv+Jmu8ks/20L65dPJvDSl/ToOIldeuNYZvQi+rUeSchTvZm2/DuWTgwma81gWr+4Ir+8RrvOb+/PIKbJG3y+egljfP5l6aAevLtd70754jpGtu3NiistGP3Fd6yaMwin/ZNo33Mmh/Ti01perbSW91rIWNp0W8jF5mP54qcfWTShIxlrhtLhuSUF2mnGwdn0eWY+Jz1e4/NVi5jQ4iSfLN5LWYN8jSuHhvMHpO0OJSS7BX5eFfH2DyA7ZBf79O6NHGrWxjLqJKcBzsQSVc+PctGxpAPZiaeIdnHDxdK48mqNr6TrrVSpcUGNC6U4LtztOs8v8y/MWXyNLlOWsOrjQTj+9QE9BizkhOH3HVrTaWHVhvdCQwkNDSV0Qb//blca+3tN/VDZpkzYvJnNmzez8rWGUKEn83J+37x5M5Na6b2rpjE+o8bBK78wY+FVOk9ZxsrZ/bAKfZuuA5cVbH8AZJF+4wY39H/SbpF3uKc60L+fDTu//ZVY/b32reOnhGo817s5ZXK2GdWf3i0+Y85fkRI5FQeWttYU64WSjE18+oDbn9b7IQBu/cEnn+eev76U2z6J7gb1q8bzR2g8lzs4e/bsnT4udQ97fA+z8ImuYmE9QNZcyd+WsnGEOFoEyCfR+dv2vlNHLOqOl91p+duS1w8Re4tW8sXJ/G2Je36SbzcckWS9PK5831/KWQTLiiSDfCs+Iz9ezN92flVvKWfRWb769x4Ltf+wWHtvl/mnCn8UNmej4L9bvtcr7/lfwsXEO0yWX8jfFrViu9DikITq73w9RY4cT5Z/UwsfN3bljsLp9ST+lSCrt18peF7W7RET712y7Lzx8SX9HCY02Ss/6x0w+3SsdGkXIpMOZOVt2/PRJqHTYQlPz0+XvPWAWHvvkM8T87cdmL9ZCD4sezP0iht6UGy9t8knufWblSbREZfkQMQl+W32VqHZXlmS8/uBiEtyOElvZ40OTHEXPN6VAykpkpKSIlcS/5RVLzcQyrWXZXr1t2dSTcFtrITrt791L4s1gfJ5fP62qI+aCtajCtZD8mk5EnFc/r1pkG+dCbJX77xc/32o2NJEPjlhkK7B+xKhf7zQN8WapjI/Vm9bxAxpANJx8en8bRkH5Z16iO0b2/M2JS3rLFj2k5/16jc7brF0qd5AJu3MD0ZreWXzCDGnjSzWq8uiaC1v4u4fZPX6iILt9Nu+YkJHWaZ3/e6ZVFNwnyj79Y6XuORpAS+ZHWmQTks5NJ4/kWwJG189r06yw8aLAy7yzr7s/CRRH4kf3WX1ZREJfVNqDRokffxmS5SInFnaSei0VM4ZWV6t8Wkur9H2yURXCwmYe6yE0t2ZGhfUuCBSeuOCputcRMImVBOsnpX/6bfTP4aJLX7yUZTx6XIlLu4omA+VzVpCLWo8yKG1v9fcD+WInR9UeJwrRnxax4WwCdWEcr3le/3rcmUPMeFpWa53XcbODxKg8E/nZaLXnCV1y0ixpbHMPZ67JUvC33IVXN+SfZn56bT2p1rjKxDnHc6f4X3J9Quxsm12F7GnjozdmVIwnYb7g9Jqf1rvh/77/HWSFefyt6nx/NEZz9U79U8yt4Z46L26bOnRgLp8y6lEoDZAGomnEqC+B66ZN7iRM3PMtJYHdVhDzEnA5fY2p4A+PAtAJuk308kUKONQA3tCuHQVsNfLt3ZjGtrk/2rrXh9H1nLuIlD1fhUWcK6Mp155bV0r4Mw5zl8GquQkqVsJpxv/MuvjOC41qYBb9adwd7akgXvxsnTyrs5zAAjpaVm3z4tdeRy4wKVrgK1x8SWcvgHO1amv9xWtztmVdVtc9Q6UReLZdHB7CresTG6k3t5qWqMCdTlHTCLgdDtdwqk0qF0RjzL5e1vVqogH/xKfxO36NbGgdsPbi7HE/W0KJha4N7Tmntc0iXwPP6v38n41r9aaSWu+YmC13C1pJJ6Mh4YeuBVof/Wpy0+321+N29ucG/njdPlnZr3dgEtt6uPmWgf3ms40aKifYToJMVHg6YmHuV556zfCg9XEnwJqFacg1fBt5Jz/axkPWj3TkQOSSSpQDkiIOwZ1XqW+Xv3qar7KuoRX9Y6jvbzaaC+vU9Nnctqp3vXrWBMHNnPpCjnXb258Dairdzyn+l44sPEeynH38wfH2bX5FBUDfakL6Dx9aWEym227Y3jfv3bOYWpQm+WcToTzcdE4ePWl5o5dxGWCdUI0FWvVyLvctJVXa3wlXW+lTI0LalwotXFBw3Weq3Yjg3bqiQerSEgE6hQjXQnS1t8b2w+VFCPHQXdfPAtclw1w5jfOX6DgdVnxWZaEjMFbP6unqqO/Ok7ZoD78n9MCvvn1KG9OaADZB1n3Yxx1B/TGL28NOiP7U63xaWVwX4KVJ4OW/sC7gcVcvbcU2p+2+6Ec/3H+zp0H7ECN53cr78NFPdQ/yUxNC75/YWKKKRlk5b0mmEV2Jug2DKVGlaEFdhXM8NZ77UaSdvHxu1NYuv5PTl7N0EtXxApFZqYUWEPUxPR2QyyZV7P/m6muYL46HWaA6OVbPsCDDZNNmPb9CZ5blUGqiQ4r20oMfdOL6e2sKINx5Px55n1yjEW7rhObqv9JuWLFl5kpYKK7y3szcrsO9/yDfeA/hT71ycxPl5lF4eOZmmCae4z7yW0YP3w/GNf03bwfPIrzry/kg6cd9RaVybodw6+DsbcabLCzOT567a98m2ls+NqcaZ+/x3PTT5MKWLl2ZOi8hUzv4ZpTb5lkZlK43ZuaGLR7Y5XBrEDFlaPt1I201duSmXkLzIp691yf9vJqo728krSTeW9PZtFv+4i9rP9f5HgVjq/Q8UwNBhJjy3H388fZMEL+hhYjGqLLzCSznCe+jeF/O/ZweXRtrAHKueBWK5qTpzOJjzlB/eatqe2+hNjTadyIj6W+r0te29JWXq3xlXS9lTI1LqhxobTGBS3XeS7D/vS/+nGt6UqQtv7e2H6oxKIzbhwsU9R1KQXa3+397XD39b3zlzrmzek7wJVPv/mFiPENaHBwHT/G1WNwr8bFGveNik+r3PsSwLR8FVxcq2Nd9h7eVC6F9qftfijHXc+fGs/vXN6Hi3qof5JlZRX8vzezs8jCHNO8Bm+KiRlI66lsfb+dwXuzOmzyFqo8z/eje/JudHfmfvk+je3L3u7EIpfQ85W/7nMhSpo5jXp6sqanJ7duppF4KplNXx/ltUmH8fRqzvNVjDlWGt9OP8DEk3bMn+ZBY9ucQfREHF0/SL7bzkUyM9NBttzl/0zV3a5DLzfCRlXF8D88samRn87MFLhlcLysbLJyj3E/lXOknq8vDfFkwvCFNJ83lz9e/ZLgvL82md6Oof10wqa3NyiHDpsCf1WvSKMXZrPmhdncunGexJgjbPpkNK/1H41nwlqerwpghpkZkJ5VRHnNC5TXxMQEsqXg84QIgikmxVga3MysDGRm36XejCmvplw1lvc8347sysSonsz/+sP86/efRXQd+Gfh+DIMj5dFweWfSroccC18O6FA5svOlHlZ7wOrnexNf4FgC4Dq1Kybwd7TMcRFV6DOC864uZ9mbfxp0mNNqNMndwqI1vJqVfLlLVVqXCiCGhcexLig7TrPYdifFtGPG5WuBGnr70u6H9IcneZxsOSZ0rTPAOrM+oZfD00ibd1PxDV6gR6NdAXSlGp/mndf8t+Muj8ohfan7X5IKzWe32t5HyT1UP8kiz1C5FVwz5kalHI0guPUoVvezJSyOFd3gWNCZe/GeOR+3ZidQWpqJqZ5d3MxHNqTgveYCQztnD+f6NqpWxRaVPehJiRFXeBYuiUBnpaUL1+WmnXLMnTAReZtOkPcv+RNd8xlktODF/2l8HUOHc7G9wV3hrXJnxd5LSm28EqgGrlUs4QzyUReh7pP5USdGEe3QfE0mtGaD3xNAFOcHS0gHirVt6Z+Xr1lk5qejWnelDtTXKqXhU3XOJ4Jfjm9wY2YZCKxpJdjMYM0mjnNho+l3UdD+HDZODq94Z7zDWxZnGvUhGNCJR9fvXIYtr8skiJ2ciy9JgF+NShvaUfNRm0ZOrIv875aSVwiOdPwLHCp5Q7fH+X4LfDL+br6xj+HiaQBvVzyI3Jwqgmn4jl9EzzL3952/mQMV0xccCrGlEgX13pw4jCRV6FuzvUm8Uvp1moBjVYf5INAcyPKq5XW8p7gUPg1fMdNZFiX/PnE107dMminOfH9HEFkxv/RJKcdnfnnb5KKSldi5bjF3tDNZDoN4acto8j9b49vhb1Hs1c3E35ICA7QAVVwcbMhLjGMuBMeNKoBrnVciY7ZS/ax2rjVyM1Ya3m1KunyljI1LhhQ4wI8iHFB63Wew6A/TTn6N5HUo7uzwWG1pgMsypWDzAwysoB7eOjS1t8b3w+ZmJqC3OvkFe3j4P1g0rg3Axq8x3frv4b/ReE3qCcF/yv7+9eflsz5M/L+4IG3P633Q1qp8fzeyvtgqYf6J1mtJH4cNoWUAc2wvnyALz9YwbWmMwjW+68ivfu+jM8nsxj8miXjutel3I1THPhuHnMOd2DtoU9oYwVQG59mFfhs2RTmOb6Il3Um545u4rfDyRTzlUPNbiZd4WBiznyY46lkkkVsxHl2/gtYWuLvYVloZe7/piPt72i6zU2l8yt1GOhZDvObN9j63WliKtvStGbhPRxdK2B74wJLV50h3dUUHSZU97TD/SmACvg0MuHj/0Uyx84Fn0rZJEWf49djt/AoZnntW9dgwMK/GP3mEZL72+KQcZ01y6PZalOT9z3zJ3n5BFfH/7tYBk4xZXz7CpS/cZP9v8cyPaoKG3/xpm3O62FeXWrQcnUUgyea83aXClhdvsySxWfJbNqAntX+I4j7odqzjHtlKh1nz2XjS0vplHOv69NvKP5zP2TgUEvG96xH+ZQE9n87m+mHnmbj0QW0tQIwJW3vLLq9dpLOH7zLQD9HzG+eYutni4hx7EZTvffWvJ4dQcvZYxk8sBJvP9cIq4v7WDJ1CZndvqSn3uunDh3707XMYMa97MGN5z2xvLiXRVPW4vj8GgKLmCF7N/ZdX2HA5B6MfrYmycNb4pAezZrZb7PVYTzv++e/2KitvLkuc2znFrYYPFCUre5HYM4Tmbby1sGnRUU+XjKZOY6D8LHJJOnIH/x6KLlQO/Xu+TwNps9i8MDKvDPAC8szW1i9PrXQdW5cOe7mMDs3XsK2Z2+61atH3tly6E7H4d+zNTyaDwNuR+Di6sHpQ3s5YeZOL3NwdqtHwi/hmCW741/d+PJqVbLlLWVqXDCgxoUHMy5ov84BqJnAqlcnk/Jic2wu7Wfx1KUkB86ls+Ff0rSmA6p4BdAw+yMWzVhD2aAqt6cpP+WKv7czZYGbp//iYHzOV1IRiWRyndgDO9mZWDCdtv7e+H7I0d0ONdbqAAAgAElEQVQT2ysbWLqgFel1LdFhQXW/oLwv4LTGp3UcNErmGSJ27jTYaELV+i1w13tnG50nvZ735d3vP+PXY014sWe9Qoe6X/3p3c6fVkbdH7gn8f0DbX/a74e0UuP5IzSe32kVvYd9dfmHPb6HWfhEV7HotkwiQj6U3n4uYmtfR5r2myp/JKQbpMyQxJ2fyfBgP3F3sBY7Vy95+tVZ8kd8wXRZZ3bIrEGtxMPJRmxdvKX7mJVyJGqptLfwFf0FHMMnuopFwFyJ1t/54DRxt/CSWUeML0fsyh1C43VF/ww6IbkL+obN2Sj0PS4FFhyNOCqu3iEy47jetuw02f3dX9Kl9yax8Vsnlq02if+Iw7LymOF5yZUq2xftFd+268XMe63gvUmm6C2JmnXunMwcv0PqtFwvFduESJfpcRIRFyttvENkdkx+Os3xiUhyzCmZNGqHeLRZL9btQqTjlCjZda7g6sAiWZK4P1qGvLxVXAPXS+W2IdJu0jH5/XSWQbpsOXcoRkYM2SZuQevFPnibdJ8ZJ4euGh5P73zfYVVnrYpaPTb7+EfSxMREWnx0XPJzz5DE0PkypKO3uNpYSeVqDaXdSzPl9ziD+si+ILu/eF26eNcUGwszsbR3E/8eb8rKv68a5Jwp5/Z8ISOC/cTNtqLY1/GX7mNWyKHLhuclS87vWySvdfIWV5uKYlfHT7qP+UoOXzFIFjFDGuAqUw7cvczJkT/JpL4txMOxslhX95SOQz+VXWczDVJpLO/mEWJe1GrDIO4FgtFW3qwz22XmC4FSx66CVHT0lC6jvpaI44uljcGq9iI35PgP46SLV3WpXLmaNOk/W8J2fyR+hdJpLIeW8xf9sfhjKS+tTTH4IEkWd0TosjxvheX03waLmbW12D73s6Tm7BtgYyOV7cZIWHHKq7l+NZbXaKWw+r0aF9S4UBrjghHXediEakLTubJry/vSw9tRKlrXFP8+78rvJwvWh9Z0+VLk8FevSZu69lIut09tszCvvfznKu8G6US09ffa+91c52T7jH7iW62CmIFg0Ddpj0/buBA2oZqQs+J4ngNTxJUGMkOvPf93vuYyoqil3E98IgEgBM2XohcT19afao1P6/krclX7Imm7PwibUE3ovFQOP+j2p/F+SPv5U+P5ozKe60T+ezmJpKQkHBwcSvZbhBL0sMenKIqiKMW3n0luQWwf/jd73qxbAukU5dEX/lZ1WmwbSdT+cXdcQFxrOkVRlPvv/o/n97Cko6IoiqIoiqIoiqIopUm9U68oiqIoDyV/psemlWA6RVEURVEevPs/nqvp94qiKIqiKIqiKIryiFLT7xVFURRFURRFURTlEaUe6hVFURRFURRFURTlEaUe6hVFURRFURRFURTlEaUe6hVFURRFURRFURTlEaUe6hVFURRFURRFURTlEaUe6hVFURRFURRFURTlEaUe6hVFURRFURRFURTlEaUe6hVFURRFURRFURTlEaUe6hVFURRFURRFURTlEaUe6pXHRDbxe+L5/IeznEgr7VgURVHuZD+T3MrSdN7xEkr3pFH9vXI/ZBC/dTmfL/mdEzdLO5aiPOzxKY83NW497NRD/RNq9yQ3yjadx4nSDqTEXGT+hKOMmPUnM8OzHliucatC0QX+zc4HlmNpSyN00V782m+gjM86dL7rqbvgspHHOMMXbXXodM35LD5/66H3G6LT6ejzzZUSjfhRc+mvr3mzRxPcq1pTtbYf3UYvZt/5B9emS0PmjjFU1enQWQ8nJKO0o3n8qP6+ZKj+vjj9fb4HeZ2n/zoInU6X/2MxjC133Wsf8/u9xIghXZkZkn5/A9QTt6AlOpvRGtrVg4/v+vH/Mbl/Sxo6WWNXy5euo5fx5yV5IHlrPy+lk68at5SHjVlpB6AoJaMKExb64H/WgqBA09IO5rF1a18U/Zek0HmiD3NqmGICWNhbFetYDTxT+GltDCNG1QL+4Y/fLWnSsETDffQkrmZw+8Ecb/0+767wpfKVv1g2dTjtItI5uPl13B/THvvIri1cDAqixc7NhEVAO9/Sjkh5uKn+/kEoyf4eHux1XqbZOEJDBwFwYd04+szXslcAEzb9hn+CLUEdLe5fcMX2gOO78CvD2/Rhe4O3eG/RJOxvRLD6/ddoH3WLA+uH4vaEX3pq3FIeNo/pLaKiiU6HrrRjKDEm2Ddw4tkGpR3H4y0p7hr/lrNhQF8HWt3jsZ5q0wbz79cSO2oMbsd+59fqgbQ4uo9TJRLpo+l8yI+szRjI+tWT6FwWoAOtrRNwCl7MmsjXmehZ2hHeDwmEhRzF8+kltEh4lW27Y5nq61baQT1+VH+vGKkk+/sHfZ2b2HkQZHf732eOV9a4VxnsG3fj2cb3Lax79GDjO/PLIlbf/D/W/DiDnpUAOtKuVgqN/Oax+u+hTHloz9ODoMYt5eGjpt8/ycqYcmXXPJ5t6kZVx7o06z+NjacN5xBlkhS+iJFdA6jnVBWXRkH0m/QDx64ZHiyD+N9n81I7L1zt7HCp35Reby5l//nsAql2T3KjbPcVHAudTb8mNajq5EHQ8zPZeuZW8cqQnECPnGmBOt/16Hx2sOB04WThczehGxZP5L7j9Om7EeuWW2g29hhbz2UbpLxFxNoIevXbQtWA9ZRvtYXmY47y20m9KZ6pp+mfk6fbp9chNZGWufn7rqfPOv1zmE3cjuMMHBiCc/MNOHbeTvcZsey7XHD6mvb4ICUukclvhNKw7QaqdNhKp2knCD9vOB1OSPozhuFDtlGr5QYcu+2gz9wEIlMMjyZciIjj9WHbqd1qAw5dt9NzdjyHkwumSU/N5EZqJtdTs8EEbuX8fiM1k9RbxZuKl2bfkV7lv+e3KIj64xfsO7XAolB8mSSFL2R4sB+17Kxx9GhGn7e+I7JQ+7tOxOoJ9GpSm6pWZShftTbN+7/Lb4VeuNWaLoO4DTMZ2Lo+zpUq4ejuT/fRi9ln0J6Rq/y1dCRPezljXcWdtsO+4sjfH+Ov82bOMePLkZZ2EySLbL1syrWbQ1TSNobV0U+ZxYUDS3m9iz+1q1rjUC+AnmO/5vCVgnVxcGpddA0/4Ij+xp1jsdE1Y0Gc3rYjM2moa8aCP/cz/8VAXG2scW70NKO+iuC6wZlJiVrD5H6BNHSypkoNLzoNX0B4UqZBKq31BlwJZ1tYBZo3fgbfQHPCQ/dwVe/jM0s7oWv+CfEA2VsY9pSORtMjbn8YORsvXT9+vpGbWmO9aS6vEeV42Kn+XvX3pdjf3+06Bwh/qzq6Lss5tnMOz/hXx7qKG036TuGPUxnFSqc9tm/ooT9V37B/1KOt/9PQD934H/1z8nN7fSdc/pSWejEUeA1Nc3zaxoXb528ZkTtm0cfXCWu72jT7v+mFrsv4mCPg4UujSvnbzH3eJCRqAy/X0n/tpQTzNea8aOqfz/PzACd01V/md703R879/BxVdW68vuVqMfJFjVvKQ0k91D/J0jfz2ZfXCH5nIcvnvIDj37Po+8IiYvT6kYyjn/JM8DhCK/RkytKVfD62HWk/DqL98J84r3eoa1vH06HPYi42e4P5337DZ+M6kPHrSIJf/JJ4w3yv/srsRckET17M8hl9sNo1ld4vLyehOGWwtOO9xU0I/cKf0FG2VLhT2mtnmfFdBp2HNWLlKHusDsXQ9e04TuolSd0XSfDUM9wMqMXyj/1ZP6UWgdcS6TH0KLtyX2Ezr8KEBX5s/tSXld3KgbkN8z71ZXPOzyT//Akw18IP02ZsAhe93PhidmMWDbYlY2skHcbHFT4vGuLjyhlGvnKIFdcrM3qSD6veqIbT0Wjav36MQ3qv2GVERdNr2HG2Wzrw3jQfFg+0JW1TBK2nnCpQb5nxMfR7NZKQ8g5Mm+rD0sF2ZG07SuuJ8ZzKHY9TE3mx+R9YBW6kwcLrkHqGDoEbscr58V5UvHfgRZx4upcla7fsIGR9BXp0tEcM7hczjnxMr7ZvsL1CL95b8S2LJ3Qg7bsBtB7yQ4FypG5/l+Dnv+Jmu8ks/20L65dPJvDSl/ToOIldacanuxYyljbdFnKx+Vi++OlHFk3oSMaaoXR4bkmBerv02xt0enUVV5qOZ+mqTxnZKIJ5n+7C8G1HreVwbtUJv9RvGP/qF4SfyQmojBW29lWpVDY/XWb0Ivq1HknIU72Ztvw7lk4MJmvNYFq/uCK/3ox2nd/en0FMkzf4fPUSxvj8y9JBPXh3u96TwcV1jGzbmxVXWjD6i+9YNWcQTvsn0b7nTA7pnT+t5QVI2x1KSHYL/Lwq4u0fQHbILvbp3Zs71KyNZdRJTgOciSWqnh/lomNJB7ITTxHt4oaL5e20WutNa3mNKcdDT/X3qr8vxf7+btd5fpl/Yc7ia3SZsoRVHw/C8a8P6DFgIScMv+/Qmk4Lqza8FxpKaGgooQv6/Xe70tj/aeqHyjZlwubNbN68mZWvNYQKPZmX8/vmzZuZ1MrS6PiMGheu/MKMhVfpPGUZK2f3wyr0bboOXFag/WVkpEEZMwrMsjepgFOdOjhVzN9aovkacV609c929PnoC17IXsbrU7ZwDeDyBiaO/hbrUUv5oH0l4+sDNW4pDym5g7Nnz97p41L3sMf3MAuf6CoW1gNkzZX8bSkbR4ijRYB8Ep2/be87dcSi7njZnZa/LXn9ELG3aCVfnMzflrjnJ/l2wxFJ1svjyvf9pZxFsKxIMsi34jPy48X8bedX9ZZyFp3lq3/vsVD7D4u193aZf6rwR2FzNgr+u+V7vfKe/yVcTLzDZPmF/G1RK7YLLQ5JqP7O11PkyPFk+Te18HFjV+4onF5P4l8Jsnr7lYLnZd0eMfHeJcvOGx9f0s9hQpO98rPeAbNPx0qXdiEy6UBW3rY9H20SOh2W8PT8dMlbD4i19w75PDF/24H5m4Xgw7I3Q6+4oQfF1nubfJJbv1lpEh1xSQ5EXJLfZm8Vmu2VJTm/H4i4JIeT9HbWJFEWtkG8ZkSIxHwqTYNaSaunF8kZ2SsTqiG9V1/OL8ekmoLbWAnXb3/rXhZrAuXz+PxtUR81FaxHFayH5NNyJOK4/HvT+HSJu3+Q1esjCtbbt33FhI6yLK89p8rPz5kIzeZJTHZ+ujNfBgt4yezI/G1ayyGSKsdXvSQelghm9uLbZ5ws2ZEgN6WgA1PchToTZK9e/V7/fajY0kQ+OWGQrsH7EqG/c+ibYk1TmR+rty1ihjQA6bj4dP62jIPyTj3E9o3teZuSlnUWLPvJz3rtNDtusXSp3kAm7cwPRnt5syVsfPW8GLPDxosDLvLOPr0TGvWR+NFdVl++HXutQYOkj99siRKRM0s7CZ2WyrmcpNrqTXt5tZfDWPtkoquFBMw9VkLp7kz196q/Fymt/l5E03UuImETqglWz8r/9NvpH8PEFj/5KMr4dLkSF3cUzIfKZi2hFtU/5tDa/2nuh3LEzg8qPC4VIz6t40LYhGpCud7yvf51ubKHmPC0LNe7LreOshaC5ovepV+kks43193OizH984X1r0h16sjY0ETZPMJNTOq9KWHXij7u3etDjVslk04paeov9U8yt4Z46E2rsvRoQF2iOZWYuyWNxFMJUN8D18wb3Lhx+8e0lgd1+IcYva90nQL68GxwAyqQSfrN2+nKONTAnvNcMpxjV7sxDW3yf7V1r48jZzh38T6VM5dzZTz1ymvrWgFn0jivNyXLuW4lnG78y6yP4/hl90UiEtNJt7KkgXsFqpYtfMi7cfKuznOtKlEBIT3t9vTFMnblcSCdS4ZToTTEl3D6BjhXpL7eV/U6Z1fWbWnLh765l3MWiWfTwe0p3LLyp02a1qhAXVKIyavfLBJOpUHtiniUyT+eVa2KeHCT+KScDSYW1G5ojW9DaxrYm4KJBe45v/s2tMbTXm9nY7l1ZbRfDZoP64xjoQ/TSDwZDw09cCvQ/upTl4gC7c+5kT9Ol39m1ttf8svWPUTEXyK9gjMNGrpTtZzx6ZyaPsNznRsWbM+ONXHgHJfy/lD1L2dOZVPOqz5uei8rO3o0MiiL9nJAWdwHfMmhmAN8/2EvbI8s5tVWnnT6cK/e9Lp0EmKiwNMTD/P8Pa3qN8KDf4gv9qIE1fBt5Jz/axkPWj3TEZ+nMknN2ZQQdwzqeFNfr53qar7KuoQjfBiYG4wx5T3Ors2nqBjoS11A5+lLC5MEtu2O0QurBrWJ5XQinI+LxsGrNTUvniAuExIToqlYqwa2OUm11ZvW8hpTjkeA6u9Vf19q/b2G6zxX7UYG7dQTD46RkFjMdCVIW/9nbD9UUowcF9x98SxwXTbAmTOcv/Co5Gtc/1yl8ywWDc3ko1faMHxhed5aNo3mTxmbZy41bikPJ7VQ3pPM1LTg+xcmppiSQVbeq1JZZGeCbsNQalQZWmBXwQxvvdegJGkXH787haXr/+Tk1Qy9dEWsZGRmajCdy/R2Q7zf/0uKqa5gvjodZlBgynf5AA82TDZh2vcneG5VBqkmOqxsKzH0TS+mt7PC2NsZOX+eeZ8cY9Gu68Sm6n9SrnBiDfFlZgqY6O7y3ozcrsM9/2Af+E+hT30y89NlZlH4eKYmmOYe476ryTNzV/AMAGcMPsu6HcOvg7G3GmzwmTk+eu2vfJtpbPjanGmfv8dz00+TCli5dmTovIVM7+GaV29a00nSTua9PZlFv+0j9rL+ZHovvX8L2VlgamJQGyYmBevRiHLkbbX3pd94X/q9MZktE7sS/M5wFvX8i3EeAJlkZlL4+jU1Mbh+jVUGswKBl6Pt1I201duSmXkLzEzu0v6MKO/ZMEL+hhYjGqLLzCSznCe+jeF/O/ZweXRtrAHKueBWK5qTpzOJjzlB/eatqe2+hNjTadyIj6W+r0veAnDa6k1reY2vt4ea6u9Vf19a/b2W6zyXYf/yX/2a1nQlSFv/Z2w/VGLRGTculCnqupRCr8A9vPka2z9XpsMrL+K+aArHAuYyKMDSMIF2atxSHlLqof5JlpVFgdfPsrPIwhzTvA7DFBMzkNZT2fp+Owr+4UKHTd5Cn+f5fnRP3o3uztwv36exfdnbnXvkEnq+8td9LkRJM6dRT0/W9PTk1s00Ek8ls+nro7w26TCeXs15vooxx0rj2+kHmHjSjvnTPGhsmzPonYij6wfJd9u5SGZmOsgW7vzaoO52HXq5ETaqKob/8Y1Njfx0ZqbALYPjZWWTlXuMUmV6O4b20wmb3t6gHDpsaun/XpFGL8xmzQuzuXXjPIkxR9j0yWhe6z8az4S1PF/VmHTn+XZkVyZG9WT+1x/mt+d/FtF14J96eVpTxR5STp3lMuTdmN48m0gS+rSWI4PkcxdIMbfGqXLOQ0AZe9pPfpNu854l7MB5xnnYAWaYmQHpWUXUm3mBejMxMYFsKfj8JIJgikkxlkI3MysDmdl3aX/a6+1a+HZCgcyXnSnzsl4yq53sTX+BYAuA6tSsm8He0zHERVegzgvOuLmfZm38adJjTajTp1rOTlrrTStj2t8jQPX3RVD9/YPo77Vd5zkM+5ci+jWj0pUgbf1fSfdDmqPTPC5oZW5eFm5lUuC5XG5w8exVqORAFUuT+5KvNkb2z5knWDh+Duc6dqHVzumMW9mHNS+6FOt/BFHjlvKwUg/1T7LYI0ReBfecqWQpRyM4Th265c3sKYtzdRc4JlT2boxH7tew2RmkpmZimnfXF8OhPSl4j5nA0M75S3RfO3WLQovvPtSEpKgLHEu3JMDTkvLly1KzblmGDrjIvE1niPsXMLjJM8l5Mir6S+brHDqcje8L7gxrkz9/8lpSbKEVxbVyqWYJZ5KJvA51c6aOSWIc3QbF02hGaz7wNQFMcXa0gHioVN+a+nn1lk1qejameVPkTHGpXhY2XeN4Jvjl9AY3YpKJxJJehefDP2Blca5RE44JlXx89cph2P6ySIrYybH0mgT41aC8pR01G7Vl6Mi+zPtqJXGJQFVj0p3gUPg1fMdNZFgX97xorp26ZVBvFWnaphXmI2YxfmU93g12wzRxB/NX/4Vdgb9FaC3HTdYNr87zVxdweutw8i7DlOskY4Zzhdz/H9oCl1ru8P1Rjt8Cv5w/J9745zCRNKCXS37ODk414VQ8p2+CZ/nb286fjOGKiQtO9sbWB7i41oMTh4m8CnVz+g2JX0q3VgtotPogHwSaG1HeW+wN3Uym0xB+2jKK+rlbw96j2aubCT8kBAfogCq4uNkQlxhG3AkPGtUA1zquRMfsJftYbdxq5B5Qa71ppbUcjwjV3xtQ/T08iP5e63Wew6B/STn6N5HUo7uzwWG1pgMsypWDzAwysoB7eMjU1v8Z3w+ZmJqC3OvkFe3jglY1azWEJX9z9Bq45jTpW4fm0bLxV/TeH8t7fvcn31x3Pi/G9M+3+Gf+K0w40Jz5f/9MwM/taDxqOCuC1jG4ZuF5F3fOV41bysNLPdQ/yWol8eOwKaQMaIb15QN8+cEKrjWdQbDef7Xp3fdlfD6ZxeDXLBnXvS7lbpziwHfzmHO4A2sPfUIbK4Da+DSrwGfLpjDP8UW8rDM5d3QTvx1Oxv2/8i4hN5OucDAxZz7R8VQyySI24jw7/wUsLfH3sER7H6Yj7e9ous1NpfMrdRjoWQ7zmzfY+t1pYirb0rRm4T0cXStge+MCS1edId3VFB0mVPe0w/0pgAr4NDLh4/9FMsfOBZ9K2SRFn+PXY7fwKGZ57VvXYMDCvxj95hGS+9vikHGdNcuj2WpTk/c98wcnn+Dq+H8Xy8AppoxvX4HyN26y//dYpkdVYeMv3rTNmXnm1aUGLVdHMXiiOW93qYDV5cssWXyWzKYN6FntP4J4gHz6DcV/7ocMHGrJ+J71KJ+SwP5vZzP90NNsPLqAtlYApqTtnUW3107S+YN3GejniPnNU2z9bBExjt1omvfcoTVdHXxaVOTjJZOZ4zgIH5tMko78wa+HkgvVm9tLX7D0YD+Gv9iEZYBl3QEsmdadNWvWF6MclXj6lSG4dnqHvsNuMaabB0/djOH3T6ew1e1lNrUsn3c8r2dH0HL2WAYPrMTbzzXC6uI+lkxdQma3L+npmp+vQ8f+dC0zmHEve3DjeU8sL+5l0ZS1OD6/hsAiZgTfjX3XVxgwuQejn61J8vCWOKRHs2b222x1GM/7/vkvVGor72F2bryEbc/edKtXj7y9HbrTcfj3bA2P5sOA2z2Ii6sHpw/t5YSZO73MwdmtHgm/hGOW7I5/dePrTStt5XhEqP7egOrvH0x/r/06B6BmAqtenUzKi82xubSfxVOXkhw4l86Gf2HUmg6o4hVAw+yPWDRjDWWDqtx+reIpV/y9nSkL3Dz9Fwfjc76Sikgkk+vEHtjJzsSC6bT1f8b3Q47unthe2cDSBa1Ir2uJDguq+wXlfQGnNT6t44JWTj2G8NzUXrz+f9W5PCSQqjeP8u2HMznTbg7Pe+d/EVPS+Wo9L1r75/SIj3l50kGCPvmbwTUtMBn1OVP+58cbwxbTcsMw3EyNyVeNW8pD7E6r6D3sq8s/7PE9zMInuopFt2USEfKh9PZzEVv7OtK031T5IyHdIGWGJO78TIYH+4m7g7XYuXrJ06/Okj/iC6bLOrNDZg1qJR5ONmLr4i3dx6yUI1FLpb2Fr+gvgBk+0VUsAuZKtP7OB6eJu4WXzDpifDliV+4QGq8r+mfQCcld+Ddszkah73EpsDBuxFFx9Q6RGcf1tmWnye7v/pIuvTeJjd86sWy1SfxHHJaVxwzPS65U2b5or/i2XS9m3msF700yRW+p8axz52Tm+B1Sp+V6qdgmRLpMj5OIuFhp4x0is2Py02mOT0SSY07JpFE7xKPNerFuFyIdp0TJrnMFVxEWyZLE/dEy5OWt4hq4Xiq3DZF2k47J76ezDNJly7lDMTJiyDZxC1ov9sHbpPvMODl01fB4euf7Dqs/a6O3+n0BhVe/F8mQxND5MqSjt7jaWEnlag2l3Usz5fc4g/rIviC7v3hdunjXFBsLM7G0dxP/Hm/Kyr+vFitd1pntMvOFQKljV0EqOnpKl1FfS8TxxdLGYFX72zIlJemEHI1MkCvpIhL+ljgUWoVZYznkpsRtnCMvtfOSmjYVxNa1kbQbPFM2nEgplOe5PV/IiGA/cbOtKPZ1/KX7mBVy6LJh/WbJ+X2L5LVO3uJqU1Hs6vhJ9zFfyeErBskiZkgDXGXKAcOyFZYc+ZNM6ttCPBwri3V1T+k49FPZdTbTIJWG8kZ/LP5YyktrDcuWJIs7InRZLrkLhqf/NljMrK3F9rmfJTVn3wAbG6lsN0bC9Eurtd40l1drvRmrFFa/V/296u9Lo7834joPm1BNaDpXdm15X3p4O0pF65ri3+dd+f1kwfrQmi5fihz+6jVpU9deyt3+A6zQZmFee4mdH3R7W1E/eulEtPV/xo0fIiLnZPuMfuJbrYKYgWDQN2mPT9u4EDahmpCzEnueA1PElQZiOCxfi/xR3urdVOo6VBQbV2/p/Ppi2X/BsF2VfL5azoum/vnmnzLV11ws2yyQE3rVlPrXB9LYzFLazj8ut4zJV41bavX7h5hO5L+Xp0hKSsLBweE+f61QfA97fIqiPHnOfhmM05BK/O/at/S6h7V4lMfZfia5BbF9+N/sebNuCaRTlEdf+FvVabFtJFH7x1GnBNIpilKS1Lj1sFPT7xVFUe5BxpnD7I1NBsngSvQmPnnnD1xe2UAb9UCvKIqiKIqiPADqoV5RFOUeXN70Ni1f2gAmVji6N6T5Kz/wxVvBVLr7rsoTy5/psWklmE5RFEVR7ic1bj3s1PR7RVEURVEURVEURXlEFf6/HBRFURRFURRFURRFeSSoh3pFURRFURRFURRFeUSph3pFURRFURRFURRFeUSph3pFURRFURRFURRFeUSph3pFURRFURRFURRFeUSph3pFURRFURRFURRFeUSph3pFURRFURRFURRFeUSph3pFURRFURRFUabJFeMAACAASURBVBRFeUSph3pFURRFUeBqBCE7TnA1u4TS3aOsjFQy7nMeiqIoivI4UA/1ymMim/g98Xz+w1lOpJV2LMrjI4P4rcv5fMnvnLhZ2rEU5WGPT3mkpBxkXvdGNGg1mu+P37j3dMVyg8jv36RLI2dsKngz81AJH15RFEVRHkPqof4JtXuSG2WbzuNEaQdSYi4yf8JRRsz6k5nhWQ8s17hVoegC/2bnA8uxtKURumgvfu03UMZnHTrf9dRdcLnYR8vcMYaqOh066+GEZJRgmEVI/3UQOp0u/8diGFvuutc+5vd7iRFDujIzJP3+BqgnbkFLdDajNbSrBx/fpb++5s0eTXCvak3V2n50G72YfeeLvua0l6NklVa+D7I93xfOg1kbE8a7LpsY3O5Zlkb9RyG0piuOo5/z3ODVZPX4lLU7f+Ql95I7tKIoiqI8rsxKOwBFKRlVmLDQB/+zFgQFmpZ2MI+tW/ui6L8khc4TfZhTwxQTwMLeqtjHO7JrCxeDgmixczNhEdDOt+RiNVSm2ThCQwcBcGHdOPrM17JXABM2/YZ/gi1BHS3uX3DF9oDjS1zN4PaDOd76fd5d4UvlK3+xbOpw2kWkc3Dz67g/4SPKg2zP90sZWx9eXbaerN5NGDtsMW22jsRNV/x0xrp69C+OZQcz7e3eBJnf+/EURVEU5Umg/lL/JNPpKIF7sIeECfYNnHi2QxWc1I3gfZMUd41/y9kwoK8DrfzsCPKzo0m14p7wBMJCjuL59ABauMSybXdsicZqyMTOg6CgIIKCggioXVnjXmWwb9yNZ3s1xelhfKZ/wPGdD/mRtRkD+Wj1JJ4L7kDwc2+xev6rlNm+mDWR9z//h9uDbc/3lbkbgye+isPu+azYd4eZT1rTGcHE1BTIIPNWiRxOURRFUZ4I6qH+SVbGlCu75vFsUzeqOtalWf9pbDxtOI0yk6TwRYzsGkA9p6q4NAqi36QfOHbN8GAZxP8+m5faeeFqZ4dL/ab0enMp+88XXOVo9yQ3ynZfwbHQ2fRrUoOqTh4EPT+TrWeKeQeXnECPnGngOt/16Hx2sOB04WThczehGxZP5L7j9Om7EeuWW2g29hhbzxmuwnSLiLUR9Oq3haoB6ynfagvNxxzlt5N6N6ypp+mfk6fbp9chNZGWufn7rqfPOv1zmE3cjuMMHBiCc/MNOHbeTvcZsey7LMWMD1LiEpn8RigN226gSoetdJp2gvDzYpBKSPozhuFDtlGr5QYcu+2gz9wEIlMMjyZciIjj9WHbqd1qAw5dt9NzdjyHkwumSU/N5EZqJtdTs8EEbuX8fiM1k9RbhnlrdCWcbWEVaN74GXwDzQkP3cNVgyThb1VH12U5x3bO4Rn/6lhXcaNJ3yn8cSqjWOm0x/YNPfSn6uuasSCu6KQpUWuY3C+Qhk7WVKnhRafhCwhPyjRIlUHchpkMbF0f50qVcHT3p/voxezTvz5u/I/+Ofm5vb4TLn9KS70Y+nxzpRjxZXHhwFJe7+JP7arWONQLoOfYrzl8xaD9vVUdXZdlRO6YRR9fJ6ztatPs/6YXui7T0m6CZJGtF3a5dnOIStrGsDrFKIeW8wJwZCYNdc1Y8Od+5r8YiKuNNc6NnmbUVxFcL8b5Ozi1LrqGH3BEP4+dY7ExOI9Gtau7tOczSzuha/4J8QDZWxj2lI5G0yNufxg5Gy9dP37Oez29BM8LcLsfX8jwYD9q2Vnj6NGMPm99R2ShfjyfRdN2dLQ6zdbwO7+kpTWdVlZWlTDhGikl/aq+oiiKojzG1EP9kyx9M599eY3gdxayfM4LOP49i74vLCJG774x4+inPBM8jtAKPZmydCWfj21H2o+DaD/8J87rHera1vF06LOYi83eYP633/DZuA5k/DqS4Be/vH0Tq+/qr8xelEzw5MUsn9EHq11T6f3ychKKUwZLO95b3ITQL/wJHWVLhTulvXaWGd9l0HlYI1aOssfqUAxd347jpF6S1H2RBE89w82AWiz/2J/1U2oReC2RHkOPsiv3lWXzKkxY4MfmT31Z2a0cmNsw71NfNuf8TPLPn4N8LfwwbcYmcNHLjS9mN2bRYFsytkbSYXxc4fOiIT6unGHkK4dYcb0yoyf5sOqNajgdjab968c4pPdKdUZUNL2GHWe7pQPvTfNh8UBb0jZF0HrKqQL1lhkfQ79XIwkp78C0qT4sHWxH1rajtJ4Yz6nc577URF5s/gdWgRtpsPA6pJ6hQ+BGrHJ+vBfpP6Rpl7Y7lJDsFvh5VcTbP4DskF3sK+oZ/MovzFl8jS5TlrDq40E4/vUBPQYs5ITh9x1a02lh1Yb3QkMJDQ0ldEG//25XF9cxsm1v/r+9Ow+rqmr/P/6GgwyCiCAGiICgoKgoiKaWpalZmpplj/VtNsuh+lmW+tUs8ynTNBtscigbv9n02KCWY85lWpk4I6gMSpoTCiJ4YP3+YDqAw4FUPI+f13VxXbLPvde+9zrrHLnPXnudD45eyxPvzuGTKQ9Sf/0YuvWdxEabBRuPL32aG3q/w6Frnubdr75k+qju5M0dzI13zywdB+7tGbV4MYsXL+bjR1uAd1+mFv2+ePFixnTyrHR+1sTp9O/8OEtr3c742XOYNboH+XMH0Pn+D0qfX5v+m/jOMXqOe5+PJ/fHa+Uz9Hrg/TLjL7jTzbTJ+T9GPvIua/cVnWANL/wDrsLHvfLnYVe/lDjBdy9MJOnqJ3n705kMj/uLWQ/eynPLsyrff5Vh57g633gObNgYz517SQPYl8zOpm3wSEwmFyhITyUxNIJQz4vQL0De5te4rcuTLPe+jX9/8BkzRt3IqTn30HnQF2XeD8pwCqNhU0jNOHDu/rE3zk7OHu7U5BS5ulIvIiJiP3MO+/fvP9fD1e5yz+9ytnZ0uHHzvcfMPVq6LWvhYybIrZ15PbF027qxkcatyUjz86nSbZnzB5kAt07m3b2l29J/+cp8tmCzybQ5xtHP7zQebj3MBxnljlv7X+bLQ6XbDn5yu/Fw62k+/OsfntT6TcY3drmZllrxoTVTFhra/mw+tznfg9+sNc6xa8zsv0u37fxgueHajWal7c4nsszmHZnmr5yK7SZ/vKJivI30P1LMp8uPlu2Xeb8Y59jV5v2Dlc8v4+s1hqvXma9tGixISza3dF1qxmzIL9n2y6uLDDdvMmtzS+Myl20wvrErzNvppds2TFts6LHJrMuzOd2Vvxn/2J/M68XPb/4pk5hw2GxIOGy+m7zM0GGdmVn0+4aEw2ZThs3Odiswa0aGGJq/YBKMMQVrRppAQs3YXwvKRK0Z1cDgdZf5j+04/XGI8aeNeXVn5eOKpc/obnAdbBbbk+rKp4wv7c205IoPZbzf0+DZ33xtc9yC3TPMLSHNzZhVpZ2f/vMX5tP5CWXHwWd3GGe6m/dtXh/FkqddZ/AddtZxZW9+G8ZFGSJHmXU24+DED4ONP1eb13eVblszqoHB43bzue3r8uNbjTM3mdllXpc5ZscnD5loTwwuASa+3wgzc0WKOXmW1M53Hnb3S8JE0xxM9xlppdvyfjNjm2L8n1xe6eNuGBdVMvZKnKEf7R9Xdoznna+aNvQxnx4pPFajBx80/dpMNjuNMftm3Wy4eZY5cJH65ZcxDQ0RT5u1tu/j8wYaXzqat/ecpZNMunm3m5vxHbbkbAGVjDs7a262ycrKMscPp5hlY9objxbPmg1VeVsRERG5QulK/ZUsogXRPqW/ekY3pwmJpKYXbzlFemoKNIsm3JpNdnbhj6VRNJFsJcnmEl79dv24q0dzvLGSe7IwrkZgGAEc5HD5OdWNW9PCr/RX/6hmBLGPA4cu0nkWC65DjM35+od7E8wpDtos3h7cxIf62X/x8mu7+ebnQySk55Lr5UnzKG+ucq/Y5PnUjw3h7k4+eGPIPVU4Xb1GvZoEksvh8lNf7cgvJS0bgmvTzObSrFNwOPOWdGFCfPHLOZ/0/bkQUYuI/NJp8pYwb5qQRVLJ85tPSuopaFyb6Bql7Xk1qk00J9mTUbTB2Y3GLXyJb+FL8wALOLsRVfR7fAtfYgJsdrbbDlYvTqV2x3iaAE4x8VzrnMJPPydVDG3cstw4jSGa7aSkVzHuAkrZvR0iY2lmc1ynho8wL2UzEzqWrjVQv/2/uLtni7Kvj6CGBHKAw1Wb6GCHXFKSdkJMDNE2yx54NWtJNFvZk1ouPCqemDKvy+YEs4+Df9sGuRN1z3tsTNrA5xNuw3/zDB7pFMPNE9aVm+5tn8r1SwPiWwaX/lojmk7/6k5cLSs5VTi23ewaV3aM5wZhNCaZtHQ4uDuRwFadaXhoF7utkJ6SSO1GYfgXhV7YfjlF+t490CKaiDLv481oQkKZ9/HqsnxkA+rWrUu9+lHctyKWD74eS3xV3lZERESuUFf4WsVXOIul7P0XzhYs5JFfcvt4PgVWcFowmLC6g8vsanAh1mZ6pMlYzWvPjWPW/N/ZeyzPJq55xeO6WCizPr2zpXAgVvHWbLtZnMoe18kJF8DYHLdmu2gWPOvM+M93cfcneeQ4O+Hl78Pgp1rxUlcvKvt3pjl4kKmvb2f66hMkl6k8PKqUn9VqwNnpPPfNmMLn8JetBHTcWuHROGtpnDWfiu1ZnLEUt3Gx7F/D0j/h2sda4GS1YvWIIb41/GfFLxx5ojG+trEuzmfIL69ifvbGXUBW6+mKxz0Dk7GKqc88y/TvfiX5iO1Xz7W6eMlhxWql4uv8bP1S40yvS1Nm/BVzDYin/8h4+j/5LEtG96LH2KFM7/sHI6Irl2Hl+qUGLmUS9KDL8wvpUrlDVp4948qe8ewRSkSjRPamWdmTtItm13SmcdRMktNOkb0nmWbxoSULl17YfskvzPXbAQR4DSi3rytx55rmbsCu5VTtjTuL+CeWsubeAvJzMlgz7UmeeOoTrp73EGFVblFEROTKoqL+SpafT5nbQgvyyccVS8kfiBacXcB0fp5lL3Sl7IVqJ/wiiv99kM+f6MtziX145b0XaB3gXvhH8LaZ9H34j4t8EheaKy37xjC3bwynT54iPTWTRR9t4dExm4hpdQ331q1MW6f47KUNjN5bj2njo2ntX1Rc7dpNrxczz7fzGbm4OEGB4dy3iTsVPoetIlgz7CrKL4ruF1Ya52IBTpdrL7+A/OI2LpLja5ezErAODKbGQJsHvFaxLvc+etgmbS04Q36uFfOzN+4CcnGpUfG4FRzks8d7MXpnX6Z9NKH09bF1Or0e+P3iJYcLLi5Abv4F6pc8Mg/8TZarL/XrFH0oVSOAbs8+Re+pd7Fmw0FGRNerRHvV1S/g7OwMBabs54jGYLDgXL42tWNc2TeeQ2jYJI91aUnsTvQm8r5gIqLS+H5PGrnJzkT2a1C004XuF0thrt1eYs1L3cq9Hzjh1+hs+x3kr31Q5+rzrUVgb9zZ+YTF0rrofalt3k9M6PE1P+1/iAFBVW5SRETkiqKi/kqWvJltxyCqaGpp1pYEdhBJ75KZnO4Eh4TCdkOd2NZEF1+uKsgjJ8eKpaTKT2LjL1nEDh/F4J6RJc0fTz1NhcXWL2uGjJ1/sz3Xk3YxntSs6U7DJu4MvucQUxftY/dfQLmi3rmoAjjzJIMTbNxUQPx9UQy5oXS+/PGM5CpNVQYIbeAJ+zLZdgKa1CrKOn03vR/cQ8uJnXkx3hmwEBzkBnvAp5kvzUqetwJycguwlEzFthAa4g6LjrPDCm2K3g2ykzLZhie3XbQ/qE+zbuVirPUH8dWSYTQr3rrm33R4ZDFrNxp6tLOprHZtYtsxaFIyTv9kG03pE1yuWXvjADcPD7DmkZcP/IOiPzS8aYXjmj2z6N3pTVp++hsvdnQFdrFx7XHiR4xmyC1RJfseTz191nHgbLGA+aeTV9wIbRQFn29hx2loUzTNJHvrJrbRnNtCK9veSeYNDeHeY2+StmwoJd2adYJMXAj29qqwx7nPo/L9Yq/z9V9g/YaQuoe0kxBTs3Dbwb1JHHUOpX5A+TTPN67sHc91CY3wY3f6GnbviqZlGIRHhpOYtI6C7Y2JCCt+Q73Q/eJOcFhD2G7wiYu3eT8o/z5ezpEdbN4LMVERZwmoZJy98vOp4ndWiIiIXLFU1F/JGmXw5ZBxZN3TAd8jG3jvxQ843n4iPWz+Nou9YyBxr7/MgEc9GdGnCR7ZqWyYM5Upm27k+42vc4MXQGPiOnjz1vvjmBp0P618rRzYsojvNmUSdbZjXyAnM47yW3rR/NEdOVjJJznhIKv+Ajw9aRvtif23wjtx6s9Eer+SQ8+HI3kgxgPXk9ksm5NGUh1/2jesuEdQuDf+2X8z65N95IZbcMKZkJh6RNUC8CaupTOv/WcbU+qFEudTQEbiAb7dfppKzlIuEdA5jHve+YMnntpM5p3+BOadYO7sRJb5NeSFmNJJwnE9Qmg7J5kHxlkY2c2bmtknWf9DMi/trMvCb2LpUnRRrdUtYVz/6U4GjHblmVu88TpyhJkz9mNt35y+Dc6SxD+2iVULD+Pf93Z6N21KyWcMgX3oPvRzlq1NZEI7m5HTMIVPHnmWrPuvwe/wemY8P4vMjq/Qs/wVRnvjgLqt2tGi4FWmT5yL+3V1C2+rqBVO29hg3IGTaX/w256ij6QS0rFyguQNq1iVXjYuoNfD3PPsrTxxV0Myh15PYG4icyc/w7LAkbzQtvjMIom7tjavzXyWKUEPEudnJWPzj3y7MfOs4yAoKgb/owuY9WYncpt44oQbIW2uK/kAzt78Wt31GNdPfpoBD/jwzN0t8Tr0KzOfn4m193v0Dbf/GSvkw00PDyL85rHcMeQ0w3tHU+tkEj+8MY5lEQNZdH3NSp5H5fvFXufrv8Dud9KrxgBGDIwm+94YPA+tY/q47wm6dy4dy98Zc95xZf94Dg2PJm3jOna5RHGbKwRHNCXlm7W4ZEbRNqR4xwvfL3H9B9P2lQk8MNiTkX2bUjMrhfWfTealjTexcMubdKnweUwBOz58hwWW7szq5n+mJisZZ7/sE5mcpjbetS5IcyIiIleGc62id7mvLn+553c5Wzs63Lj1ft8kLJ1gbm8TavwDIk37/s+bH1Nyy0XmmfRVb5mhPdqYqEBfUy+8lbnpkZfNj3vKxuXvW2FefrCTia7vZ/xDY02f4R+bzTtnmW5u8eaV7eWO2+4Vk2i782/jTZRbK/Py5sqfR/LHKwyt553558Fdpnih9zVTFhru2GHKLFidsMWExy41E3fYbCs4ZX6e84e55fZFxq/NPOPZaZFp+9gm8/H28v1SLMcsn77OxHeZb1xivzfELjLjbJbUzj9wwEwaucJEXj/f1L5hqbnlpd0mYXeyuSF2qZmcVBpnd37GmMykVDNm2AoTfcN849t1qek+bqdZfaDsqvHG5Jv09Ylm0MBlJrzjfFOny1LTdcx280Nafrm4AnNgY5J5bNBPJuK6+Sagx0+mz6TdZuOx8u3Z9Pc5Vvu3S+Jrpi2e5qHvs8o9kGFmdMdwy2xT/MUAa0Y1MLR/xaxe8oK5NTbI1PZtaNr2e878sLfs82FvXKkss+nDR80NTQKMR+EFXcMN75SMl+Rp1xVuO9OPTZwxxmRu+8qMueNaEx1Ux/iGxJjug98wq/dbyxwtf99yM+m+jiaynrepHRRjbhn2kUnYMcPcQCszeduZ8jtglk/sb+IbeBsXMBBuxm0ofdT+/KzmwC/vmsd6tDER/rVNQGRb02f4B2bjkbLjYM2oBoaildhLbBhnwmluJpZZIv6k2b1winmoayvT0M/b+Ie3NF0HTDILdpV/Lu07D7v7JWGiaV5u33M793GNyTcHf51uHr051oT71Tb1ItuYPsM/NJuOlm3FrnFVifGc+90A4+Lra/zv/trkFO3bzs/P1Kk33Kyxze6C90ueSV85zQzqHmvC/bxMnQYtTNeHJpkfdp/p9ZFvMhY/ZdrU9jLtX/rDnDpDROXiKufQp/2Mm9sAM0+r34uIiNjNyZgzLYNUKCMjg8DAwIv8sULVXe75icg/s/Z/Q7j2p8fZuX4EkRcgTqQyrrhxlfkbM58ZzaQPf8dvwPt882pfgs80n8/euCooWD2SkG7z6PXJN4zvHoKPV01c9T09IiIi56T/KkVERASOJrBqTySPf/ErK6ado1C3N64KnDs+ycxhASy4vxUh9eKYtPHCtS0iIvLfSvfUi4iICIQN4NMF5b/27h/EVUkgPV5exs4R6aTuz8Sr0ms/iIiIXHk0/V5ERERERETEQWn6vYiIiIiIiIiDUlEvIiIiIiIi4qBU1IuIiIiIiIg4KBX1IiIiIiIiIg5KRb2IiIiIiIiIg1JRLyIiIiIiIuKgVNSLiIiIiIiIOCgV9SIiIiIiIiIOSkW9iIiIiIiIiINSUS8iIiIiIiLioFTUO5jdn6zEqeOfrKruRKro5zERuLefyq7qTkREREREROS/gIp6EREREREREQelol4uPScnnKo7BxERERERkf8CKuovlp07aBG3gje3HGbaqJWEd1xAcN81DJt7jBNlAg0ZvycxdNBPNLp+AUG9V9DvlRS2ZdmE5KRxZ9w8nOLnE/HGCchJ5/r4+TgV/fSbl1cS+tubS3C6dRubbQ+xIQG/uBW8mVb5/Na+sginIXvY9usO+t2xEN/rl9Dh6e0sO1BQ9b6pYeHo6qnc1T6Cq4Ka0OHO8SxMyysXZCVj7XQe79WOpvWvIrTldfQf8wXbj5dvLI89P0zmoa6tCK9Xj9Bm7bntqVmsP1g2v5/HRODe5wO2r5xM/6vDuKp+NNfdO4ll+06fMcXTW6fTu3EQLe75P1JM1U9VRERERETkYlJRf1Hl8930nSTFRPD2hBiGN8ll1ovree7X0kIyb2citw3ZwXLPQP49Po4ZD/hzalECncelcrA4yLUuo95sw+I34vm4twe4+jH1jXgWF/2Maety0fID4Ph+Js7Jo+eQlnw8LACvjUn0emY3e6t4VHIX89Z7x+kx9h1mT7mPoD9f5o77ppNkU4fnbXmDf/UYwUrvvoyb9TFvP92VU18+SLehX5X2C3B82Uhu7DeDQx2eZNpn/8dbI24k79vH6XH/e+wpf9xj3zJ5eiY9np3B7In98Fr9PLcPnE3KGVLcv/o/LEk/yq6vv+PXCh8kiIiIiIiIXB6qWg2KXU7i0rEd0/p7AnBzB0+Obl3LjOVHee3qegD88UMK6+qGsHZSUzq4AgRyvU8ODZ/ew9f7QhhaH7B4EHuNBwC7d+8Eiwfx1wRw3SXID4AkZ255O4b+PoX5Xe18goB/H2D5oUY8WLcKh93ly60Lx9PXB6A7nepmENlnDguS/x/DGheGbPxiJhuChrJ89ijauxXGXee7n6jb32HuhDsYHFoYd8LzWv799UB69miONwDd6OiRSND937Hyr0doGGBz3E3u9Jg7gTv8Cttr67yN0IHzWHFgEPdfVTbFkJ6PMXShE6mxj9CpdhXOUURERERE5BJQUX9RuRLfxLP0V5fadOpWhw2mgBzAg3zS9+dCRC0i8q1k5xSGWcK8acIBktKB+tWZX5HgOsT4lIb5h3sTzAEOHgGqUtRHtCDapj3P6OY04TNS04HGAKdIT02BZtGEW7PJthbGWRpFE8lckvYCRUV9/Xb9uAsAK7knc7EaqBEYRgBLOXwMsC3qG7emhZ/NeUQ1I4jvOXAIKFfUOzXow9Rv+1Th5ERERERERC4dFfUXlRMuZW5wsNDl8WvpUvK7IT8f+GUrAR23Vtg7zlrd+RVvdsJSZjcnXABT1XvNLZay9304W7CQV9gXAORTYAWnBYMJqzu4zK4GF2Jt7g4wGat57blxzJr/O3uP5dnENa94XBdL2fNwthS+AHTPvIiIiIiIOCgV9dXKCYsFaBXBmmFX4VbuUb+wyrfo7OwEplydagwGJ5wvlyXn8/Mps4xdQT75uBb2BQAWnF3AdH6eZS90xb3Mzk74RRT/+yCfP9GX5xL78Mp7L9A6wL3ww4JtM+n78B8X+SRERERERESqn4r6amUhOMgN9oBPM1+aFV++LiggJ7cAi2vFPZyLKvOzXVwOvMoDDp4k7RTEFFXDB9OzOersQf2qTJW/GJI3s+0YRBVNwc/aksAOIukdXBzgTnBIKGw31IltTXRJv+SRk2PFUlLlJ7Hxlyxih49icM/IkuaPp57G9ssDqsTkcuLYSaxOrnj6eHKGp0JERERERKTaqaivZnE9Qmg7J5kHxlkY2c2bmtknWf9DMi/trMvCb2Lp4lk2PijcG//sv5n1yT5ywy044UxITD2iahU+HnhtfXq9sYURY3eS3bs2nkcOM336YYK6xtHRveLxq0WjDL4cMo6sezrge2QD7734AcfbT6RHRGlI7B0DiXv9ZQY86smIPk3wyE5lw5ypTNl0I99vfJ0bvAAaE9fBm7feH8fUoPtp5WvlwJZFfLcpk6h/muOfU2jX/kVSb5pB0rf3l7/lXkRERERE5LKgor6auUZFMvdtCy/MTON/x+Zw1NWd1lc34PvZkRUKegDX9k34clAuIz76k55HCrDixriPbuT5FkUBAaG8/3Y+499OYfTYJLJq1aR9l+b8OKQ+fhWbqx4B/8OYgX8xfvQgVqW50ej6UXw1eQiNbW60d415gq9+qMlLkz7imQHJHPUIIa7rA3y95Imigh7An3+9+hWpY59n9vB7+NslhA63P8mLo3MZPmfGP0px77oVJOPNfQ/1VUEvIiIiIiKXLSdjzr7cWUZGBoGBgZcyn0q53PMTR3Wcz+8M4oHfh7Bs6xSu0dx7ERERERG5TDmfP0TkCnN6A2uXW4l5+H46qKAXEREREZHLmIp6kfIS1rL0xHU88j/NuVy+MEBERERERORMdE+9SHmtn2P7yepOQkRERERE5Px0pV5ERERERETEQamoFxEREREREXFQKupFREREREREHJRDF/X6OjsRERERERG5kjl0US8iIiIiIiJyJVNRLyIiIiIiokARsgAAAltJREFUIuKgVNSLiIiIiIiIOCgV9SIiIiIiIiIOymGL+vy8HPIKqjsLERERERERkerjsEX98pHB+PiH0qbfWObvyavudEREREREREQuOYct6uOfWMJPX02i44G3uHvQbFKqOyERERERERGRS8yluhOoKp+wONqFxdEw7QveefQPtloh1GHPRkRERERERKTyHPZKfTFrXh441aCGpbozEREREREREbm0HL6oP3H8KPh74+1U3ZmIiIiIiIiIXFoOX9Tnnc4Fr5p4VHciIiIiIiIiIpeYwxf14bHXUDdlLUt+28exrGyys/VVdyIiIiIiInJlcPii3qv7RL59+Srm9Iwg0L8ufn6xTNpY3VmJiIiIiIiIXHwOv168dct7DB+bQJvJ3/JGC3/cnWsQEFXdWYmIiIiIiIhcfA5f1Cf+OIf1gX15c8BNtKzuZEREREREREQuIYeffm+MgVN5nK7uREREREREREQuMYcv6mt5+8Dfx8ms7kRERERERERELjGHL+rdPb3gVDY5ulQvIiIiIiIiVxiHLerz87LJzEjg2wW/QdNGNKxR3RmJiIiIiIiIXFoOu1De8pEh9JpxEpfgzoz/cDDNqjshERERERERkUvMyRhjzvZgRkYGgYGBlzIfux3b+yepeXUJCa2Pj5tTdacjIiIiIiIicsk57JV6n7BW+FR3EiIiIiIiIiLVyGHvqRcRERERERG50qmoFxEREREREXFQKupFREREREREHJSKehEREREREREHpaJeRERERERExEGpqBcRERERERFxUCrqRURERERERBzU/wf9Nn5eBykK6gAAAABJRU5ErkJggg==;" vertex="1" parent="1">
          <mxGeometry x="760" y="385" width="574.38" height="110" as="geometry" />
        </mxCell>
        <mxCell id="6mpwaXIzWs3BblDAKZ4c-47" value="所有单实例都是先从容器中获取，没有再创建" style="text;html=1;strokeColor=#B09500;fillColor=#e3c800;align=center;verticalAlign=middle;whiteSpace=wrap;rounded=0;fontColor=#000000;" vertex="1" parent="1">
          <mxGeometry x="400" y="70" width="270" height="30" as="geometry" />
        </mxCell>
        <mxCell id="6mpwaXIzWs3BblDAKZ4c-51" value="" style="edgeStyle=orthogonalEdgeStyle;rounded=0;orthogonalLoop=1;jettySize=auto;html=1;" edge="1" parent="1" source="6mpwaXIzWs3BblDAKZ4c-48" target="6mpwaXIzWs3BblDAKZ4c-33">
          <mxGeometry relative="1" as="geometry" />
        </mxCell>
        <mxCell id="6mpwaXIzWs3BblDAKZ4c-48" value="populateBean对象属性赋值" style="rounded=0;whiteSpace=wrap;html=1;" vertex="1" parent="1">
          <mxGeometry x="530" y="420" width="120" height="40" as="geometry" />
        </mxCell>
      </root>
    </mxGraphModel>
  </diagram>
</mxfile>
